<svg width="24" height="24" viewBox="0 0 24 24" fill="none" xmlns="http://www.w3.org/2000/svg">
<mask id="mask0_66750_30783" style="mask-type:alpha" maskUnits="userSpaceOnUse" x="0" y="0" width="24" height="25">
<rect y="0.000976562" width="24" height="24" fill="#D9D9D9"/>
</mask>
<g mask="url(#mask0_66750_30783)">
<path d="M4 22.001V16.001H7V22.001H4ZM9 22.001V10.101C8.16667 10.3843 7.625 10.9051 7.375 11.6635C7.125 12.4218 7 13.201 7 14.001H5C5 11.8676 5.625 10.1676 6.875 8.90098C8.125 7.63431 9.83333 7.00098 12 7.00098C13.6667 7.00098 14.9167 6.58848 15.75 5.76348C16.5833 4.93848 17 3.68431 17 2.00098H19C19 3.46764 18.6875 4.78014 18.0625 5.93848C17.4375 7.09681 16.4167 7.91764 15 8.40098V22.001H13V16.001H11V22.001H9ZM12 6.00098C11.45 6.00098 10.9792 5.80514 10.5875 5.41348C10.1958 5.02181 10 4.55098 10 4.00098C10 3.45098 10.1958 2.98014 10.5875 2.58848C10.9792 2.19681 11.45 2.00098 12 2.00098C12.55 2.00098 13.0208 2.19681 13.4125 2.58848C13.8042 2.98014 14 3.45098 14 4.00098C14 4.55098 13.8042 5.02181 13.4125 5.41348C13.0208 5.80514 12.55 6.00098 12 6.00098Z" fill="white"/>
</g>
</svg>
