<svg width="24" height="24" viewBox="0 0 24 24" fill="none" xmlns="http://www.w3.org/2000/svg">
<path d="M11.441 15.7785L10.5625 17.7905C10.225 18.564 9.1545 18.564 8.817 17.7905L7.9385 15.7785C7.1565 13.988 5.7495 12.5625 3.9945 11.7835L1.5765 10.71C0.807498 10.369 0.807498 9.25051 1.5765 8.90901L3.919 7.86901C5.7195 7.07001 7.1515 5.59201 7.92 3.74001L8.81 1.59601C9.14 0.800515 10.2395 0.800515 10.57 1.59601L11.46 3.74001C12.2285 5.59151 13.661 7.06951 15.461 7.86901L17.8035 8.90901C18.5725 9.25001 18.5725 10.3685 17.8035 10.71L15.3855 11.7835C13.63 12.563 12.223 13.988 11.441 15.7785Z" fill="url(#paint0_radial_65810_38668)"/>
<path d="M19.605 22.123L19.358 22.689C19.177 23.1035 18.603 23.1035 18.4225 22.689L18.1755 22.123C17.735 21.1135 16.942 20.3095 15.952 19.87L15.191 19.532C14.7795 19.349 14.7795 18.751 15.191 18.568L15.9095 18.2485C16.9245 17.7975 17.732 16.964 18.165 15.92L18.4185 15.308C18.5955 14.8815 19.185 14.8815 19.3615 15.308L19.615 15.92C20.048 16.964 20.8555 17.7975 21.8705 18.2485L22.589 18.568C23.0005 18.751 23.0005 19.349 22.589 19.532L21.828 19.87C20.8385 20.3095 20.0455 21.1135 19.605 22.123Z" fill="url(#paint1_radial_65810_38668)"/>
<defs>
<radialGradient id="paint0_radial_65810_38668" cx="0" cy="0" r="1" gradientUnits="userSpaceOnUse" gradientTransform="translate(14.5818 10.4693) rotate(78.858) scale(13.6427 13.6494)">
<stop stop-color="#1BA1E3"/>
<stop offset="0.3" stop-color="#5489D6"/>
<stop offset="0.545" stop-color="#9B72CB"/>
<stop offset="0.825" stop-color="#D96570"/>
<stop offset="1" stop-color="#F49C46"/>
</radialGradient>
<radialGradient id="paint1_radial_65810_38668" cx="0" cy="0" r="1" gradientUnits="userSpaceOnUse" gradientTransform="translate(14.5818 10.4693) rotate(78.858) scale(13.6427 13.6494)">
<stop stop-color="#1BA1E3"/>
<stop offset="0.3" stop-color="#5489D6"/>
<stop offset="0.545" stop-color="#9B72CB"/>
<stop offset="0.825" stop-color="#D96570"/>
<stop offset="1" stop-color="#F49C46"/>
</radialGradient>
</defs>
</svg>
