<svg width="12" height="18" viewBox="0 0 12 18" fill="none" xmlns="http://www.w3.org/2000/svg">
<path d="M5.99935 17.3327C5.8049 17.3327 5.63824 17.2771 5.49935 17.166C5.36046 17.0549 5.25629 16.9091 5.18685 16.7285C4.92296 15.9507 4.58963 15.2216 4.18685 14.541C3.79796 13.8605 3.24935 13.0618 2.54102 12.1452C1.83268 11.2285 1.25629 10.3535 0.811849 9.52018C0.381293 8.68685 0.166016 7.6799 0.166016 6.49935C0.166016 4.87435 0.728516 3.49935 1.85352 2.37435C2.9924 1.23546 4.37435 0.666016 5.99935 0.666016C7.62435 0.666016 8.99935 1.23546 10.1243 2.37435C11.2632 3.49935 11.8327 4.87435 11.8327 6.49935C11.8327 7.76324 11.5896 8.81879 11.1035 9.66601C10.6313 10.4993 10.0827 11.3257 9.45768 12.1452C8.70768 13.1452 8.13824 13.9785 7.74935 14.6452C7.37435 15.298 7.06185 15.9924 6.81185 16.7285C6.7424 16.923 6.63129 17.0757 6.47852 17.1868C6.33963 17.2841 6.1799 17.3327 5.99935 17.3327ZM5.99935 14.3535C6.23546 13.8813 6.49935 13.416 6.79102 12.9577C7.09657 12.4993 7.54102 11.8882 8.12435 11.1243C8.72157 10.3466 9.20768 9.63129 9.58268 8.97851C9.97157 8.31185 10.166 7.48546 10.166 6.49935C10.166 5.34657 9.75629 4.3674 8.93685 3.56185C8.13129 2.7424 7.15213 2.33268 5.99935 2.33268C4.84657 2.33268 3.86046 2.7424 3.04102 3.56185C2.23546 4.3674 1.83268 5.34657 1.83268 6.49935C1.83268 7.48546 2.02018 8.31185 2.39518 8.97851C2.78407 9.63129 3.27713 10.3466 3.87435 11.1243C4.45768 11.8882 4.89518 12.4993 5.18685 12.9577C5.4924 13.416 5.76324 13.8813 5.99935 14.3535ZM5.99935 8.58268C6.58268 8.58268 7.07574 8.38129 7.47852 7.97852C7.88129 7.57574 8.08268 7.08268 8.08268 6.49935C8.08268 5.91601 7.88129 5.42296 7.47852 5.02018C7.07574 4.6174 6.58268 4.41602 5.99935 4.41602C5.41602 4.41602 4.92296 4.6174 4.52018 5.02018C4.1174 5.42296 3.91602 5.91601 3.91602 6.49935C3.91602 7.08268 4.1174 7.57574 4.52018 7.97852C4.92296 8.38129 5.41602 8.58268 5.99935 8.58268Z" fill="#49454E"/>
</svg>
