<svg width="14" height="14" viewBox="0 0 14 14" fill="none" xmlns="http://www.w3.org/2000/svg">
<path d="M7.00065 13.4788C6.07843 13.4788 5.21176 13.3038 4.40065 12.9538C3.58954 12.6038 2.88398 12.1288 2.28398 11.5288C1.68398 10.9288 1.20898 10.2233 0.858984 9.41218C0.508984 8.60106 0.333984 7.7344 0.333984 6.81217C0.333984 5.88995 0.508984 5.02329 0.858984 4.21217C1.20898 3.40106 1.68398 2.69551 2.28398 2.09551C2.88398 1.49551 3.58954 1.02051 4.40065 0.670508C5.21176 0.320508 6.07843 0.145508 7.00065 0.145508C7.92287 0.145508 8.78954 0.320508 9.60065 0.670508C10.4118 1.02051 11.1173 1.49551 11.7173 2.09551C12.3173 2.69551 12.7923 3.40106 13.1423 4.21217C13.4923 5.02329 13.6673 5.88995 13.6673 6.81217V7.77884C13.6673 8.4344 13.4423 8.99273 12.9923 9.45384C12.5423 9.91495 11.9895 10.1455 11.334 10.1455C10.9451 10.1455 10.5784 10.0622 10.234 9.89551C9.88954 9.72884 9.60065 9.48995 9.36732 9.17884C9.0451 9.50106 8.68121 9.74273 8.27565 9.90384C7.8701 10.065 7.4451 10.1455 7.00065 10.1455C6.07843 10.1455 5.29232 9.82051 4.64232 9.17051C3.99232 8.52051 3.66732 7.7344 3.66732 6.81217C3.66732 5.88995 3.99232 5.10384 4.64232 4.45384C5.29232 3.80384 6.07843 3.47884 7.00065 3.47884C7.92287 3.47884 8.70899 3.80384 9.35898 4.45384C10.009 5.10384 10.334 5.88995 10.334 6.81217V7.77884C10.334 8.06773 10.4284 8.31217 10.6173 8.51217C10.8062 8.71217 11.0451 8.81217 11.334 8.81217C11.6229 8.81217 11.8618 8.71217 12.0507 8.51217C12.2395 8.31217 12.334 8.06773 12.334 7.77884V6.81217C12.334 5.32329 11.8173 4.06217 10.784 3.02884C9.75065 1.99551 8.48954 1.47884 7.00065 1.47884C5.51176 1.47884 4.25065 1.99551 3.21732 3.02884C2.18398 4.06217 1.66732 5.32329 1.66732 6.81217C1.66732 8.30106 2.18398 9.56217 3.21732 10.5955C4.25065 11.6288 5.51176 12.1455 7.00065 12.1455H10.334V13.4788H7.00065ZM7.00065 8.81217C7.55621 8.81217 8.02843 8.61773 8.41732 8.22884C8.80621 7.83995 9.00065 7.36773 9.00065 6.81217C9.00065 6.25662 8.80621 5.7844 8.41732 5.39551C8.02843 5.00662 7.55621 4.81217 7.00065 4.81217C6.4451 4.81217 5.97287 5.00662 5.58398 5.39551C5.1951 5.7844 5.00065 6.25662 5.00065 6.81217C5.00065 7.36773 5.1951 7.83995 5.58398 8.22884C5.97287 8.61773 6.4451 8.81217 7.00065 8.81217Z" fill="#1C1B21"/>
</svg>
