<svg width="16" height="17" viewBox="0 0 16 17" fill="none" xmlns="http://www.w3.org/2000/svg">
<path d="M8.00065 15.4788C7.8451 15.4788 7.71176 15.4344 7.60065 15.3455C7.48954 15.2566 7.40621 15.14 7.35065 14.9955C7.13954 14.3733 6.87287 13.79 6.55065 13.2455C6.23954 12.7011 5.80065 12.0622 5.23398 11.3288C4.66732 10.5955 4.20621 9.89551 3.85065 9.22884C3.50621 8.56217 3.33398 7.75662 3.33398 6.81217C3.33398 5.51217 3.78398 4.41217 4.68398 3.51217C5.5951 2.60106 6.70065 2.14551 8.00065 2.14551C9.30065 2.14551 10.4007 2.60106 11.3007 3.51217C12.2118 4.41217 12.6673 5.51217 12.6673 6.81217C12.6673 7.82328 12.4729 8.66773 12.084 9.34551C11.7062 10.0122 11.2673 10.6733 10.7673 11.3288C10.1673 12.1288 9.71176 12.7955 9.40065 13.3288C9.10065 13.8511 8.85065 14.4066 8.65065 14.9955C8.5951 15.1511 8.50621 15.2733 8.38399 15.3622C8.27287 15.44 8.1451 15.4788 8.00065 15.4788ZM8.00065 13.0955C8.18954 12.7177 8.40065 12.3455 8.63399 11.9788C8.87843 11.6122 9.23398 11.1233 9.70065 10.5122C10.1784 9.88995 10.5673 9.31773 10.8673 8.79551C11.1784 8.26217 11.334 7.60106 11.334 6.81217C11.334 5.88995 11.0062 5.10662 10.3507 4.46217C9.70621 3.80662 8.92287 3.47884 8.00065 3.47884C7.07843 3.47884 6.28954 3.80662 5.63399 4.46217C4.98954 5.10662 4.66732 5.88995 4.66732 6.81217C4.66732 7.60106 4.81732 8.26217 5.11732 8.79551C5.42843 9.31773 5.82287 9.88995 6.30065 10.5122C6.76732 11.1233 7.11732 11.6122 7.35065 11.9788C7.5951 12.3455 7.81176 12.7177 8.00065 13.0955ZM8.00065 8.47884C8.46732 8.47884 8.86176 8.31773 9.18398 7.99551C9.50621 7.67329 9.66732 7.27884 9.66732 6.81217C9.66732 6.34551 9.50621 5.95106 9.18398 5.62884C8.86176 5.30662 8.46732 5.14551 8.00065 5.14551C7.53398 5.14551 7.13954 5.30662 6.81732 5.62884C6.4951 5.95106 6.33398 6.34551 6.33398 6.81217C6.33398 7.27884 6.4951 7.67329 6.81732 7.99551C7.13954 8.31773 7.53398 8.47884 8.00065 8.47884Z" fill="#1C1B21"/>
</svg>
