<svg width="16" height="16" viewBox="0 0 16 16" fill="none" xmlns="http://www.w3.org/2000/svg">
<path d="M8 8.00012C6.9 8.00012 5.95833 7.60846 5.175 6.82512C4.39167 6.04179 4 5.10012 4 4.00012C4 2.90012 4.39167 1.95846 5.175 1.17512C5.95833 0.391789 6.9 0.00012207 8 0.00012207C9.1 0.00012207 10.0417 0.391789 10.825 1.17512C11.6083 1.95846 12 2.90012 12 4.00012C12 5.10012 11.6083 6.04179 10.825 6.82512C10.0417 7.60846 9.1 8.00012 8 8.00012ZM0 16.0001V13.2001C0 12.6335 0.145833 12.1126 0.4375 11.6376C0.729167 11.1626 1.11667 10.8001 1.6 10.5501C2.63333 10.0335 3.68333 9.64596 4.75 9.38762C5.81667 9.12929 6.9 9.00012 8 9.00012C9.1 9.00012 10.1833 9.12929 11.25 9.38762C12.3167 9.64596 13.3667 10.0335 14.4 10.5501C14.8833 10.8001 15.2708 11.1626 15.5625 11.6376C15.8542 12.1126 16 12.6335 16 13.2001V16.0001H0ZM2 14.0001H14V13.2001C14 13.0168 13.9542 12.8501 13.8625 12.7001C13.7708 12.5501 13.65 12.4335 13.5 12.3501C12.6 11.9001 11.6917 11.5626 10.775 11.3376C9.85833 11.1126 8.93333 11.0001 8 11.0001C7.06667 11.0001 6.14167 11.1126 5.225 11.3376C4.30833 11.5626 3.4 11.9001 2.5 12.3501C2.35 12.4335 2.22917 12.5501 2.1375 12.7001C2.04583 12.8501 2 13.0168 2 13.2001V14.0001ZM8 6.00012C8.55 6.00012 9.02083 5.80429 9.4125 5.41262C9.80417 5.02096 10 4.55012 10 4.00012C10 3.45012 9.80417 2.97929 9.4125 2.58762C9.02083 2.19596 8.55 2.00012 8 2.00012C7.45 2.00012 6.97917 2.19596 6.5875 2.58762C6.19583 2.97929 6 3.45012 6 4.00012C6 4.55012 6.19583 5.02096 6.5875 5.41262C6.97917 5.80429 7.45 6.00012 8 6.00012Z" fill="#47464F"/>
</svg>
