<svg width="14" height="13" viewBox="0 0 14 13" fill="none" xmlns="http://www.w3.org/2000/svg">
<path d="M1.66732 10.1455V11.4788H12.334V10.1455H1.66732ZM3.66732 2.81217V1.47884C3.66732 1.11217 3.79787 0.798286 4.05898 0.537175C4.3201 0.276063 4.63398 0.145508 5.00065 0.145508H9.00065C9.36732 0.145508 9.68121 0.276063 9.94232 0.537175C10.2034 0.798286 10.334 1.11217 10.334 1.47884V2.81217H12.334C12.7007 2.81217 13.0145 2.94273 13.2757 3.20384C13.5368 3.46495 13.6673 3.77884 13.6673 4.14551V11.4788C13.6673 11.8455 13.5368 12.1594 13.2757 12.4205C13.0145 12.6816 12.7007 12.8122 12.334 12.8122H1.66732C1.30065 12.8122 0.986762 12.6816 0.725651 12.4205C0.46454 12.1594 0.333984 11.8455 0.333984 11.4788V4.14551C0.333984 3.77884 0.46454 3.46495 0.725651 3.20384C0.986762 2.94273 1.30065 2.81217 1.66732 2.81217H3.66732ZM1.66732 8.14551H12.334V4.14551H10.334V5.47884H9.00065V4.14551H5.00065V5.47884H3.66732V4.14551H1.66732V8.14551ZM5.00065 2.81217H9.00065V1.47884H5.00065V2.81217Z" fill="#1C1B21"/>
</svg>
