<svg width="64" height="64" viewBox="0 0 64 64" fill="none" xmlns="http://www.w3.org/2000/svg">
<mask id="mask0_62014_184476" style="mask-type:alpha" maskUnits="userSpaceOnUse" x="0" y="0" width="64" height="64">
<rect width="64" height="64" fill="#D9D9D9"/>
</mask>
<g mask="url(#mask0_62014_184476)">
<path d="M32.0663 58.4667C26.1108 52.4667 21.3663 47.6222 17.833 43.9333C14.2997 40.2444 11.6108 37.1778 9.76634 34.7333C7.9219 32.2889 6.7219 30.2 6.16634 28.4667C5.61079 26.7333 5.33301 24.8 5.33301 22.6667C5.33301 18.5778 6.75523 15.1111 9.59967 12.2667C12.4441 9.42222 15.9108 8 19.9997 8C21.9997 8 23.933 8.36667 25.7997 9.1C27.6663 9.83333 29.333 10.8889 30.7997 12.2667L26.6663 26.6667H34.6663L32.3997 49L39.9997 24H31.9997L36.733 9.86667C37.8441 9.24444 39.0108 8.77778 40.233 8.46667C41.4552 8.15556 42.7108 8 43.9997 8C48.0886 8 51.5552 9.42222 54.3997 12.2667C57.2441 15.1111 58.6663 18.5778 58.6663 22.6667C58.6663 24.8 58.3775 26.7556 57.7997 28.5333C57.2219 30.3111 55.9997 32.4333 54.133 34.9C52.2663 37.3667 49.5775 40.4333 46.0663 44.1C42.5552 47.7667 37.8886 52.5556 32.0663 58.4667Z" fill="#E7E0EB"/>
</g>
</svg>
