<svg width="64" height="64" viewBox="0 0 64 64" fill="none" xmlns="http://www.w3.org/2000/svg">
<mask id="mask0_62014_184214" style="mask-type:alpha" maskUnits="userSpaceOnUse" x="0" y="0" width="64" height="64">
<rect width="64" height="64" fill="#D9D9D9"/>
</mask>
<g mask="url(#mask0_62014_184214)">
<path d="M53.3329 45.7997L19.7329 12.2663L26.6662 5.33301H47.9995C49.4662 5.33301 50.7218 5.85523 51.7662 6.89967C52.8107 7.94412 53.3329 9.19968 53.3329 10.6663V45.7997ZM54.6662 62.133L40.5329 47.9997L44.3329 44.2663L53.3329 53.2663V53.333C53.3329 54.7997 52.8107 56.0552 51.7662 57.0997C50.7218 58.1441 49.4662 58.6663 47.9995 58.6663H15.9995C14.5329 58.6663 13.2773 58.1441 12.2329 57.0997C11.1884 56.0552 10.6662 54.7997 10.6662 53.333V21.333L12.2662 19.733L1.86621 9.33301L5.66621 5.59967L58.3995 58.333L54.6662 62.133Z" fill="#E7E0EB"/>
</g>
</svg>
