<svg width="56" height="56" viewBox="0 0 56 56" fill="none" xmlns="http://www.w3.org/2000/svg">
<path d="M42.875 0H13.125C5.87626 0 0 5.87626 0 13.125V42.875C0 50.1237 5.87626 56 13.125 56H42.875C50.1237 56 56 50.1237 56 42.875V13.125C56 5.87626 50.1237 0 42.875 0Z" fill="#5865F2"/>
<mask id="mask0_66875_48409" style="mask-type:luminance" maskUnits="userSpaceOnUse" x="6" y="11" width="44" height="35">
<path d="M6.125 11.1562H49.875V45.0472H6.125V11.1562Z" fill="white"/>
</mask>
<g mask="url(#mask0_66875_48409)">
<path d="M43.161 14.1745C40.3245 12.8727 37.3312 11.9442 34.2559 11.4124C34.228 11.4073 34.1991 11.4111 34.1734 11.4232C34.1478 11.4354 34.1266 11.4553 34.1128 11.4802C33.7283 12.164 33.3021 13.0565 33.004 13.7578C29.6411 13.2542 26.2958 13.2542 23.0021 13.7578C22.7037 13.0407 22.2623 12.164 21.876 11.4802C21.8617 11.4557 21.8404 11.4361 21.8148 11.424C21.7893 11.4119 21.7606 11.4079 21.7327 11.4124C18.6571 11.943 15.6636 12.8715 12.8276 14.1745C12.8034 14.185 12.783 14.2026 12.769 14.2248C7.09721 22.6983 5.54365 30.9636 6.30577 39.1265C6.31042 39.1668 6.33087 39.2036 6.36265 39.2288C10.1046 41.977 13.7295 43.6454 17.287 44.7512C17.3147 44.7594 17.3442 44.7589 17.3716 44.75C17.3991 44.741 17.4231 44.7238 17.4406 44.7009C18.2821 43.5516 19.0322 42.3399 19.6756 41.0657C19.6844 41.0482 19.6895 41.0291 19.6904 41.0095C19.6913 40.99 19.6881 40.9705 19.6809 40.9523C19.6737 40.934 19.6628 40.9176 19.6488 40.9039C19.6348 40.8902 19.618 40.8797 19.5996 40.873C18.4096 40.4215 17.2767 39.8713 16.1869 39.2463C16.1671 39.2346 16.1504 39.2182 16.1384 39.1986C16.1264 39.1789 16.1194 39.1566 16.118 39.1336C16.1167 39.1106 16.121 39.0877 16.1306 39.0667C16.1402 39.0458 16.1548 39.0275 16.1731 39.0136C16.4031 38.8417 16.629 38.6646 16.8508 38.4825C16.8703 38.4664 16.8938 38.4562 16.9188 38.4528C16.9437 38.4494 16.9691 38.453 16.9921 38.4632C24.1523 41.7322 31.9037 41.7322 38.9791 38.4632C39.0023 38.4523 39.028 38.4482 39.0533 38.4513C39.0787 38.4544 39.1026 38.4646 39.1224 38.4807C39.3445 38.6639 39.571 38.8416 39.8019 39.0136C39.8203 39.0274 39.835 39.0455 39.8448 39.0664C39.8545 39.0872 39.859 39.1102 39.8578 39.1332C39.8566 39.1562 39.8498 39.1785 39.838 39.1982C39.8261 39.218 39.8096 39.2345 39.7898 39.2463C38.6994 39.883 37.5572 40.4266 36.3754 40.8712C36.3571 40.8783 36.3404 40.8891 36.3266 40.903C36.3127 40.9169 36.302 40.9336 36.295 40.9519C36.288 40.9703 36.2849 40.9899 36.286 41.0095C36.2871 41.0291 36.2923 41.0482 36.3012 41.0657C36.9557 42.3298 37.702 43.5442 38.5342 44.6991C38.5512 44.7227 38.5752 44.7403 38.6027 44.7496C38.6302 44.759 38.6599 44.7595 38.6878 44.7512C42.2626 43.6454 45.8875 41.977 49.6296 39.2288C49.6456 39.217 49.659 39.2019 49.6688 39.1846C49.6786 39.1672 49.6846 39.148 49.6865 39.1282C50.5987 29.6911 48.1586 21.4935 43.2179 14.2266C43.2059 14.2029 43.1856 14.1844 43.161 14.1745ZM20.7448 34.1562C18.589 34.1562 16.8128 32.1772 16.8128 29.7467C16.8128 27.3161 18.5547 25.3371 20.7448 25.3371C22.952 25.3371 24.711 27.3336 24.6764 29.7467C24.6764 32.1772 22.9347 34.1562 20.7448 34.1562ZM35.2821 34.1562C33.1263 34.1562 31.3502 32.1772 31.3502 29.7467C31.3502 27.3161 33.0919 25.3371 35.2821 25.3371C37.4892 25.3371 39.2482 27.3336 39.2139 29.7467C39.2139 32.1772 37.4892 34.1562 35.2821 34.1562Z" fill="white"/>
</g>
</svg>
