<svg width="56" height="56" viewBox="0 0 56 56" fill="none" xmlns="http://www.w3.org/2000/svg">
<g clip-path="url(#clip0_66875_48386)">
<rect width="56" height="56" rx="28" fill="black"/>
<path d="M51.625 0H4.375C1.95767 0 0 1.96 0 4.375V51.625C0 54.0423 1.96 56 4.375 56H51.625C54.0423 56 56 54.04 56 51.625V4.375C56 1.95767 54.04 0 51.625 0ZM28 43.75C26.6187 43.75 25.2716 43.6567 23.9587 43.47C22.6473 44.394 15.0617 49.721 14.3453 49.8213C14.3453 49.8213 14.0537 49.9357 13.804 49.7887C13.5543 49.6417 13.5987 49.2543 13.5987 49.2543C13.6733 48.741 15.5657 42.2123 15.9133 41.0107C9.50833 37.8373 5.25 32.2163 5.25 25.8137C5.25 15.9063 15.435 7.875 28 7.875C40.565 7.875 50.75 15.9063 50.75 25.8137C50.75 35.721 40.565 43.75 28 43.75ZM18.7833 23.023H16.7347V30.821C16.7347 31.5117 16.1467 32.074 15.421 32.074C14.6953 32.074 14.1097 31.514 14.1097 30.821V23.023H12.061C11.7367 22.999 11.4335 22.8533 11.2122 22.6151C10.9909 22.3768 10.8679 22.0637 10.8679 21.7385C10.8679 21.4133 10.9909 21.1002 11.2122 20.8619C11.4335 20.6237 11.7367 20.478 12.061 20.454H18.781C19.1053 20.478 19.4085 20.6237 19.6298 20.8619C19.8511 21.1002 19.9741 21.4133 19.9741 21.7385C19.9741 22.0637 19.8511 22.3768 19.6298 22.6151C19.4085 22.8533 19.1053 22.999 18.781 23.023M44.4173 29.9227C44.5219 30.06 44.5982 30.2167 44.6419 30.3837C44.6855 30.5507 44.6956 30.7247 44.6717 30.8957C44.6476 31.0661 44.59 31.2302 44.5023 31.3783C44.4146 31.5265 44.2985 31.6559 44.1607 31.759C43.9338 31.9313 43.6569 32.0247 43.372 32.025C43.1684 32.0257 42.9674 31.9788 42.7851 31.8881C42.6028 31.7973 42.4442 31.6652 42.322 31.5023L39.2443 27.426L38.7893 27.881V30.744C38.7887 31.0918 38.6504 31.4252 38.4047 31.6714C38.159 31.9176 37.8258 32.0564 37.478 32.0577C37.1296 32.0577 36.7955 31.9193 36.5491 31.6729C36.3027 31.4265 36.1643 31.0924 36.1643 30.744V21.7653C36.1786 21.4268 36.3231 21.1069 36.5677 20.8724C36.8123 20.6379 37.138 20.507 37.4768 20.507C37.8157 20.507 38.1414 20.6379 38.386 20.8724C38.6305 21.1069 38.7751 21.4268 38.7893 21.7653V24.5887L42.4527 20.9253C42.6462 20.7353 42.9071 20.6296 43.1783 20.6313C43.505 20.6313 43.8363 20.7737 44.0837 21.021C44.308 21.2424 44.4447 21.5374 44.4687 21.8517C44.4805 21.998 44.4607 22.1452 44.4108 22.2832C44.3609 22.4213 44.282 22.547 44.1793 22.652L41.188 25.641L44.4173 29.9227ZM24.934 21.7513C24.7123 21.1213 24.0403 20.4727 23.184 20.454C22.33 20.4727 21.658 21.1213 21.4363 21.749L18.298 30.0113C17.899 31.248 18.2467 31.71 18.6083 31.878C18.8708 31.9942 19.1543 32.0553 19.4413 32.0577C19.9897 32.0577 20.4073 31.836 20.5333 31.479L21.1843 29.7757H25.186L25.837 31.479C25.963 31.836 26.3807 32.0577 26.929 32.0577C27.2162 32.0546 27.4997 31.9927 27.762 31.8757C28.1237 31.71 28.4713 31.2503 28.0723 30.009L24.934 21.7513ZM21.875 27.4517L23.1863 23.7277L24.4953 27.4517H21.875ZM35.6533 30.6787C35.6448 31.0046 35.5078 31.314 35.2723 31.5395C35.0367 31.765 34.7217 31.8883 34.3957 31.8827H30.1863C29.8599 31.8889 29.5443 31.7659 29.3082 31.5403C29.0722 31.3148 28.9349 31.005 28.9263 30.6787V21.7653C28.9263 21.042 29.5283 20.454 30.268 20.454C31.0077 20.454 31.6073 21.042 31.6073 21.7653V29.477H34.3957C35.0887 29.477 35.6557 30.016 35.6557 30.6787" fill="#FFE600"/>
</g>
<defs>
<clipPath id="clip0_66875_48386">
<rect width="56" height="56" rx="28" fill="white"/>
</clipPath>
</defs>
</svg>
