<svg width="20" height="20" viewBox="0 0 20 20" fill="none" xmlns="http://www.w3.org/2000/svg">
<mask id="mask0_66552_41488" style="mask-type:alpha" maskUnits="userSpaceOnUse" x="0" y="0" width="20" height="20">
<rect width="20" height="20" fill="#D9D9D9"/>
</mask>
<g mask="url(#mask0_66552_41488)">
<path d="M10 16.6667C10.7083 16.6667 11.3889 16.559 12.0417 16.3438C12.6944 16.1285 13.3056 15.8195 13.875 15.4167C13.3056 15.0139 12.6944 14.7049 12.0417 14.4896C11.3889 14.2743 10.7083 14.1667 10 14.1667C9.29167 14.1667 8.61111 14.2743 7.95833 14.4896C7.30556 14.7049 6.69444 15.0139 6.125 15.4167C6.69444 15.8195 7.30556 16.1285 7.95833 16.3438C8.61111 16.559 9.29167 16.6667 10 16.6667ZM12.2083 9.83335L11.0208 8.64585C11.0903 8.53474 11.1458 8.41669 11.1875 8.29169C11.2292 8.16669 11.25 8.04169 11.25 7.91669C11.25 7.56947 11.1285 7.27433 10.8854 7.03127C10.6424 6.78822 10.3472 6.66669 10 6.66669C9.875 6.66669 9.75 6.68752 9.625 6.72919C9.5 6.77085 9.38194 6.82641 9.27083 6.89585L8.08333 5.70835C8.34722 5.47224 8.64236 5.29516 8.96875 5.1771C9.29514 5.05905 9.63889 5.00002 10 5.00002C10.8056 5.00002 11.4931 5.28474 12.0625 5.85419C12.6319 6.42363 12.9167 7.11113 12.9167 7.91669C12.9167 8.2778 12.8576 8.62155 12.7396 8.94794C12.6215 9.27433 12.4444 9.56947 12.2083 9.83335ZM16.9583 14.5834L15.75 13.375C16.0556 12.8611 16.2847 12.3195 16.4375 11.75C16.5903 11.1806 16.6667 10.5972 16.6667 10C16.6667 8.13891 16.0208 6.56252 14.7292 5.27085C13.4375 3.97919 11.8611 3.33335 10 3.33335C9.40278 3.33335 8.81944 3.40974 8.25 3.56252C7.68056 3.7153 7.13889 3.94447 6.625 4.25002L5.41667 3.04169C6.09722 2.59724 6.82639 2.25696 7.60417 2.02085C8.38194 1.78474 9.18056 1.66669 10 1.66669C11.1528 1.66669 12.2361 1.88544 13.25 2.32294C14.2639 2.76044 15.1458 3.35419 15.8958 4.10419C16.6458 4.85419 17.2396 5.73613 17.6771 6.75002C18.1146 7.76391 18.3333 8.84724 18.3333 10C18.3333 10.8195 18.2153 11.6181 17.9792 12.3959C17.7431 13.1736 17.4028 13.9028 16.9583 14.5834ZM10 18.3334C8.84722 18.3334 7.76389 18.1146 6.75 17.6771C5.73611 17.2396 4.85417 16.6459 4.10417 15.8959C3.35417 15.1459 2.76042 14.2639 2.32292 13.25C1.88542 12.2361 1.66667 11.1528 1.66667 10C1.66667 9.18058 1.78125 8.38197 2.01042 7.60419C2.23958 6.82641 2.57639 6.0903 3.02083 5.39585L0.5625 2.91669L1.75 1.72919L18.25 18.2292L17.0625 19.4167L4.25 6.62502C3.94444 7.13891 3.71528 7.68058 3.5625 8.25002C3.40972 8.81947 3.33333 9.4028 3.33333 10C3.33333 10.7917 3.46528 11.5486 3.72917 12.2709C3.99306 12.9931 4.375 13.6528 4.875 14.25C5.625 13.6806 6.43403 13.2465 7.30208 12.9479C8.17014 12.6493 9.06944 12.5 10 12.5C10.5278 12.5 11.0556 12.5556 11.5833 12.6667C12.1111 12.7778 12.625 12.9306 13.125 13.125L15.8958 15.8959C15.1042 16.6875 14.2014 17.2917 13.1875 17.7084C12.1736 18.125 11.1111 18.3334 10 18.3334Z" fill="#47464F"/>
</g>
</svg>
