<svg width="68" height="68" viewBox="0 0 68 68" fill="none" xmlns="http://www.w3.org/2000/svg">
<g filter="url(#filter0_d_68049_99070)">
<path d="M32.3568 33.5622L32.2336 33.8448C32.1432 34.0517 31.8568 34.0517 31.7667 33.8448L31.6434 33.5622C31.4236 33.0582 31.0279 32.6568 30.5338 32.4374L30.154 32.2686C29.9487 32.1772 29.9487 31.8787 30.154 31.7873L30.5126 31.6278C31.0191 31.4026 31.4221 30.9865 31.6382 30.4653L31.7647 30.1597C31.853 29.9468 32.1472 29.9468 32.2353 30.1597L32.3618 30.4653C32.5779 30.9865 32.9809 31.4026 33.4874 31.6278L33.846 31.7873C34.0513 31.8787 34.0513 32.1772 33.846 32.2686L33.4662 32.4374C32.9724 32.6568 32.5767 33.0582 32.3568 33.5622Z" fill="url(#paint0_radial_68049_99070)"/>
</g>
<defs>
<filter id="filter0_d_68049_99070" x="0" y="0" width="68" height="68" filterUnits="userSpaceOnUse" color-interpolation-filters="sRGB">
<feFlood flood-opacity="0" result="BackgroundImageFix"/>
<feColorMatrix in="SourceAlpha" type="matrix" values="0 0 0 0 0 0 0 0 0 0 0 0 0 0 0 0 0 0 127 0" result="hardAlpha"/>
<feOffset dx="2" dy="2"/>
<feGaussianBlur stdDeviation="16"/>
<feComposite in2="hardAlpha" operator="out"/>
<feColorMatrix type="matrix" values="0 0 0 0 0.768627 0 0 0 0 0.752941 0 0 0 0 1 0 0 0 1 0"/>
<feBlend mode="normal" in2="BackgroundImageFix" result="effect1_dropShadow_68049_99070"/>
<feBlend mode="normal" in="SourceGraphic" in2="effect1_dropShadow_68049_99070" result="shape"/>
</filter>
<radialGradient id="paint0_radial_68049_99070" cx="0" cy="0" r="1" gradientUnits="userSpaceOnUse" gradientTransform="translate(29.85 27.7439) rotate(78.8627) scale(6.81126 6.81182)">
<stop stop-color="#6C63FF"/>
<stop offset="0.3" stop-color="#6C63FF"/>
<stop offset="0.545" stop-color="#6C63FF"/>
<stop offset="0.825" stop-color="#C4C0FF"/>
<stop offset="1" stop-color="#C4C0FF"/>
</radialGradient>
</defs>
</svg>
