<svg width="40" height="40" viewBox="0 0 40 40" fill="none" xmlns="http://www.w3.org/2000/svg">
<g filter="url(#filter0_d_68046_97576)">
<path d="M20.1409 27.3732L19.4013 29.0687C18.8594 30.3104 17.1406 30.3104 16.6002 29.0687L15.8606 27.3732C14.5416 24.3492 12.1671 21.9407 9.20277 20.6242L6.92411 19.6116C5.69196 19.0634 5.69196 17.2721 6.92411 16.7239L9.07551 15.7668C12.1147 14.4158 14.5326 11.9189 15.8291 8.79153L16.5882 6.95822C17.1182 5.68059 18.8833 5.68059 19.4118 6.95822L20.1709 8.79153C21.4674 11.9189 23.8853 14.4158 26.9245 15.7668L29.0759 16.7239C30.308 17.2721 30.308 19.0634 29.0759 19.6116L26.7972 20.6242C23.8344 21.9407 21.4599 24.3492 20.1409 27.3732Z" fill="url(#paint0_radial_68046_97576)"/>
</g>
<defs>
<filter id="filter0_d_68046_97576" x="0" y="0" width="40" height="40" filterUnits="userSpaceOnUse" color-interpolation-filters="sRGB">
<feFlood flood-opacity="0" result="BackgroundImageFix"/>
<feColorMatrix in="SourceAlpha" type="matrix" values="0 0 0 0 0 0 0 0 0 0 0 0 0 0 0 0 0 0 127 0" result="hardAlpha"/>
<feOffset dx="2" dy="2"/>
<feGaussianBlur stdDeviation="4"/>
<feComposite in2="hardAlpha" operator="out"/>
<feColorMatrix type="matrix" values="0 0 0 0 0.768627 0 0 0 0 0.752941 0 0 0 0 1 0 0 0 1 0"/>
<feBlend mode="normal" in2="BackgroundImageFix" result="effect1_dropShadow_68046_97576"/>
<feBlend mode="normal" in="SourceGraphic" in2="effect1_dropShadow_68046_97576" result="shape"/>
</filter>
<radialGradient id="paint0_radial_68046_97576" cx="0" cy="0" r="1" gradientUnits="userSpaceOnUse" gradientTransform="translate(5.09991 -7.53668) rotate(78.8627) scale(40.8676 40.8709)">
<stop stop-color="#6C63FF"/>
<stop offset="0.3" stop-color="#6C63FF"/>
<stop offset="0.545" stop-color="#6C63FF"/>
<stop offset="0.825" stop-color="#C4C0FF"/>
<stop offset="1" stop-color="#C4C0FF"/>
</radialGradient>
</defs>
</svg>
