<svg width="75" height="75" viewBox="0 0 75 75" fill="none" xmlns="http://www.w3.org/2000/svg">
<g filter="url(#filter0_d_68047_97833)">
<path d="M32.0299 58.6266L25.9422 63.9981C23.6026 66.0635 20.0164 64.3912 20.0947 61.2714L20.2964 53.1552C20.4752 45.9322 17.9898 38.9563 13.328 33.6037L6.90551 26.2282C4.86232 23.884 6.6105 20.135 9.72043 20.1916L19.1933 20.3651C26.4739 20.4996 33.5812 17.7826 39.0503 12.7756L45.3828 6.97961C47.7317 4.82876 51.415 6.54633 51.2789 9.72898L50.9094 18.3056C50.59 25.7119 53.0789 32.9037 57.8593 38.3953L64.0813 45.5405C66.1245 47.8848 64.3763 51.6337 61.2663 51.5771L51.4881 51.398C44.3888 51.2684 37.4481 53.8468 32.0299 58.6266Z" fill="url(#paint0_radial_68047_97833)"/>
</g>
<defs>
<filter id="filter0_d_68047_97833" x="0" y="0" width="75" height="74.948" filterUnits="userSpaceOnUse" color-interpolation-filters="sRGB">
<feFlood flood-opacity="0" result="BackgroundImageFix"/>
<feColorMatrix in="SourceAlpha" type="matrix" values="0 0 0 0 0 0 0 0 0 0 0 0 0 0 0 0 0 0 127 0" result="hardAlpha"/>
<feOffset dx="2" dy="2"/>
<feGaussianBlur stdDeviation="4"/>
<feComposite in2="hardAlpha" operator="out"/>
<feColorMatrix type="matrix" values="0 0 0 0 0.927099 0 0 0 0 0.922157 0 0 0 0 1 0 0 0 1 0"/>
<feBlend mode="normal" in2="BackgroundImageFix" result="effect1_dropShadow_68047_97833"/>
<feBlend mode="normal" in="SourceGraphic" in2="effect1_dropShadow_68047_97833" result="shape"/>
</filter>
<radialGradient id="paint0_radial_68047_97833" cx="0" cy="0" r="1" gradientUnits="userSpaceOnUse" gradientTransform="translate(50.8497 45.7374) rotate(103.864) scale(50.4541 50.4538)">
<stop stop-color="#E3DFFF"/>
<stop offset="0.3" stop-color="#C4C0FF"/>
<stop offset="0.545" stop-color="#A5A1FF"/>
<stop offset="0.825" stop-color="#6C63FF"/>
<stop offset="1" stop-color="#2000A4"/>
</radialGradient>
</defs>
</svg>
