<svg width="180" height="92" viewBox="0 0 180 92" fill="none" xmlns="http://www.w3.org/2000/svg">
<path d="M43.6288 22.6458C43.4745 23.4018 42.8291 24.1664 42.2176 24.6835C42.0268 24.8461 41.7025 24.5468 41.5537 24.6504C41.263 24.8534 41.3148 25.2085 40.9978 25.3935C40.8909 25.4539 40.3504 25.0318 40.2521 25.1021C39.7175 25.4896 39.6147 26.0639 39.2137 26.5297C37.2382 28.8213 35.689 31.2763 34.0532 33.7815C33.5126 34.6111 32.4241 35.3888 32.1966 36.4145C32.1707 36.5342 32.7287 36.7424 32.7618 36.7847C33.2637 37.4399 32.256 36.7889 32.0097 36.9206C31.0319 37.4511 30.5208 38.3242 30.3178 39.2169C30.2339 39.5955 31.4503 39.7994 30.6914 39.8327C30.6398 39.8356 30.125 39.4636 30.0184 39.5241C29.7775 39.6628 29.677 40.1031 29.5488 40.2434C29.3005 40.5089 29.2797 40.5631 29.1225 40.8528C28.9025 41.2465 28.3819 41.5754 28.2855 42.0734C28.2668 42.18 28.9018 42.3533 28.9238 42.5499C28.9454 42.7467 28.6978 43.1083 28.496 43.1687C28.294 43.2291 27.8727 42.9421 27.7577 42.912C26.7909 42.651 27.7637 43.7234 27.764 43.7961C27.7315 45.107 26.5793 45.6569 26.0749 46.6412C25.6902 47.3952 25.507 48.3078 25.1081 49.006C24.6352 49.8277 23.9513 50.3936 23.5804 51.2449C23.5403 51.3349 24.266 51.579 24.2185 51.6896C23.7166 52.8565 23.0674 53.9368 22.0314 54.8323C21.9275 54.9207 21.4111 54.4719 21.2719 54.542C20.4314 54.9812 18.7067 55.4643 21.0643 57.2068C20.7226 57.6235 20.3295 58.132 19.5936 58.287C19.1212 58.3843 18.6118 57.7921 18.7169 58.2628C18.74 58.3683 19.3533 58.5624 19.3453 58.6986C19.312 59.2704 18.8568 59.7043 18.9132 60.3103C18.9254 60.4356 19.4432 60.6709 19.5203 60.7447C20.1386 61.3539 18.727 61.1034 18.5967 61.139C17.6228 61.4094 17.6366 62.0206 17.3273 62.5818C17.2527 62.717 18.0146 62.9042 17.9673 63.0466C17.7161 63.7734 17.2964 64.4455 16.6615 64.9391C16.5158 65.0536 16.0086 64.6184 15.9095 64.6578C15.48 64.8338 16.5364 65.4642 16.1495 65.6363C16.0695 65.6731 15.5925 65.3837 15.5324 65.367C14.5902 65.1011 15.7168 65.8828 15.7196 65.9429C15.7512 66.343 15.3837 66.4586 15.0062 66.563C14.6441 66.6736 14.2737 66.7734 14.2229 67.0854C14.2117 67.1628 14.914 67.3368 14.8445 67.5344C14.3755 68.8709 13.5102 70.1302 12.3782 71.103C12.2028 71.2553 11.8024 70.8768 11.7386 70.8583C10.7269 70.5983 11.8767 71.3479 11.8905 71.4338C11.9674 72.0951 10.7057 72.0478 11.9866 73.115C11.4549 73.7359 11.067 74.451 10.7184 75.1442C10.5424 75.4945 10.3723 75.8469 10.2037 76.1767C10.1196 76.3413 10.0347 76.5033 9.96472 76.6281C9.93149 76.6858 9.89803 76.7474 9.89305 76.7324C9.8919 76.7141 9.89832 76.709 9.93851 76.4972C9.95051 76.429 9.9645 76.3402 9.97277 76.2129C9.97828 76.1292 9.98203 76.0129 9.97242 75.8722C9.95715 75.7198 9.95958 75.6007 9.84822 75.2399C9.72541 74.902 9.58865 74.5598 9.09951 74.1098C8.64582 73.7011 8.05632 73.5268 7.74134 73.4924C7.00287 73.4266 6.86237 73.5421 6.68411 73.5781C6.57463 73.643 6.70397 73.6351 6.82628 73.6189C6.95304 73.6035 7.11321 73.5761 7.29264 73.5473C7.6411 73.4956 8.03731 73.458 8.47749 73.4624C8.51053 73.4619 8.8192 74.0614 8.884 74.0576C9.68566 74.0059 9.02635 73.184 8.73864 71.8569C8.67118 71.5205 9.79489 72.6371 9.88294 72.7154C10.2042 73.0059 10.632 73.9183 10.7084 73.9657C11.3287 74.3249 9.51269 71.5589 9.89288 71.3196C9.90774 71.3168 10.1807 71.8643 10.2448 71.8955C10.4472 71.9931 10.4084 71.732 10.6158 71.8495C11.0929 72.1234 12.0197 73.4396 11.8575 72.4389C11.8349 72.3101 10.7841 70.7535 11.165 70.6218C11.3159 70.5715 11.8961 70.1763 12.1282 70.1771C12.3612 70.1769 12.5602 70.7641 12.5859 70.779C13.451 71.1876 13.4512 71.5759 14.2901 72.4511C15.1259 73.3234 13.6077 70.9546 13.5367 70.6306C13.4638 70.3087 14.1335 70.6753 14.3343 70.8224C14.5343 70.9699 14.6299 71.3606 14.7695 71.4283C15.6786 71.8725 14.2601 70.106 14.1886 69.6286C14.0254 68.4951 15.3764 70.1195 15.8226 70.0943C15.9441 70.087 15.627 69.7222 15.6883 69.6348C15.9265 69.2985 16.4496 69.7469 16.5254 69.0134C16.5355 68.8952 16.2101 67.6349 16.8676 68.319C16.9617 68.4181 17.1405 68.9147 17.3401 68.9346C17.637 68.9659 18.062 68.8547 18.2065 68.5736C18.3112 68.3668 17.7 67.7282 18.0388 67.8427C18.189 67.8944 18.2648 68.4268 18.5262 68.4878C18.7845 68.5503 19.2251 68.2787 19.3841 68.1708C19.5423 68.0627 19.1358 67.5452 19.128 67.4995C19.0876 67.235 19.2629 66.7802 19.2931 66.7645C20.7199 65.8879 22.5862 66.1345 23.8504 65.0723C23.9517 64.989 23.5613 64.4195 23.5735 64.4005C23.824 63.9483 24.3577 65.7226 24.9025 66.1279C24.2284 64.9112 24.5004 65.0542 24.7043 64.7787C24.8023 64.6448 24.4857 64.2021 24.4727 64.1468C24.2984 63.3177 24.9154 64.1889 25.0464 64.3647C25.5333 65.0088 25.2481 64.1007 25.5755 64.5304C25.9005 64.957 26.0525 65.7559 26.3073 65.616C26.1565 65.1347 25.3764 64.0714 25.4808 63.7827C25.5509 63.589 25.6684 63.4357 25.8187 63.3132C26.5202 62.741 27.8882 62.8746 28.4306 62.7214C29.0926 62.5329 29.2521 62.3614 29.6873 62.3632C30.4683 62.3714 29.8391 61.5954 30.0697 61.0114C30.302 60.4278 31.0515 62.6915 31.3137 63.1339C31.5739 63.5771 31.4263 63.0686 31.6085 63.2953C31.7901 63.5222 31.7766 63.9063 31.9829 63.9317C32.1888 63.9569 32.2805 62.9302 32.1318 62.4137C31.814 61.3202 31.1426 60.3158 31.7518 60.5105C31.787 60.5224 31.9473 61.1325 32.0696 61.1493C33.0334 61.2637 33.8506 60.959 34.7866 61.0389C34.9155 61.0509 35.0805 61.7333 35.1583 61.7477C35.968 61.9002 35.3002 60.9069 35.1738 59.5563C35.7365 61.1958 36.3242 62.101 36.8162 61.9172C37.1125 61.8073 36.7842 61.1241 36.7799 60.553C36.7781 60.3811 37.1777 60.782 37.0857 60.4361C36.787 59.3049 36.1151 58.1702 36.8144 58.4535C36.8457 58.4677 37.0056 59.0883 37.0967 59.0941C37.689 59.1344 37.3068 57.9786 37.7988 57.6313C38.1823 57.3597 39.203 57.7638 39.7296 57.6935C40.4087 59.5176 40.705 58.929 40.4174 57.6033C40.7481 57.5374 41.0642 57.3376 41.4299 57.3987C41.5556 57.4191 41.6852 57.9724 41.7196 58.0245C42.2567 58.8433 41.9358 57.5694 41.9855 57.4962C42.5448 56.756 43.486 57.4617 43.849 56.2948C43.8615 56.253 43.4307 54.9707 43.9597 55.8272C43.996 55.8863 43.9797 56.5487 44.3252 56.4709C44.6732 56.3923 45.5418 56.8422 45.7801 56.0841C45.8386 55.9012 45.7268 54.771 46.2543 55.4888C46.325 55.5866 46.429 55.9618 46.5479 56.1476C46.9301 56.7384 46.5172 55.4337 47.0949 56.4565C47.6691 57.4805 48.3239 58.1626 48.4944 57.2393C48.5 57.2121 48.2242 56.1579 48.3736 56.1185C48.4519 56.0982 48.5473 56.0938 48.6475 56.0938C48.8602 56.0881 49.0979 56.1002 49.2547 56.0315C49.3659 55.9824 49.0413 55.3882 49.0563 55.3689C49.6884 54.7068 50.4619 55.0426 51.3837 54.9618C51.5519 54.9486 51.6631 53.922 52.2152 54.488C52.8193 55.1082 53.6641 58.317 54.104 57.3131C54.2762 56.9139 53.2351 52.8332 54.5078 54.6869C55.3864 53.8105 56.6848 54.5608 57.5338 53.5337C57.5718 53.488 57.4231 52.3173 57.5453 52.3017C57.7264 52.281 57.9565 52.7863 58.0869 52.7906C58.6365 52.8222 59.0022 52.2589 59.5214 52.2242C59.7168 52.2106 59.7643 52.7775 59.9949 52.7632C60.222 52.7495 60.2359 51.9887 60.6078 52.2854C60.8921 52.5117 61.3799 53.9697 61.7056 54.0949C61.4695 52.6136 61.6807 52.6088 61.9965 52.1587C62.0565 52.0716 61.8991 51.5677 61.9235 51.4999C62.0225 51.2121 62.2186 51.62 62.3103 51.3102C62.3321 51.2359 62.2585 50.7289 62.2725 50.6395C62.3904 49.8591 62.9357 50.9461 63.0232 51.1367C63.3716 51.8578 63.3986 51.182 63.6237 51.4549C63.8493 51.7279 63.6198 52.1362 63.8605 52.2883C64.3293 52.5825 64.8468 52.4683 65.2959 52.427C65.3315 52.4234 65.3619 52.4207 65.3917 52.4185C65.5779 52.4011 65.3647 51.7389 65.3893 51.7206C65.7428 51.5008 66.2305 52.1662 66.2424 50.7878C67.0166 54.2336 66.4188 50.4171 67.0582 51.0326C67.1091 51.0825 67.4162 52.7203 67.2895 52.9871C67.1622 53.2537 66.8348 52.777 66.6592 53.188C66.6198 53.2844 66.5221 54.8751 66.4879 54.9752C66.2377 55.756 65.8568 53.295 65.8223 53.1618C65.6048 52.3733 65.461 52.5351 65.3546 52.8626C65.2606 53.1315 65.2044 53.5112 65.1665 53.5684C64.7885 54.15 64.367 53.8501 64.0433 54.2758C63.835 54.551 64.0297 56.1699 63.8378 56.1456C63.2139 56.0655 62.6463 53.8502 62.3799 55.8884C62.3238 56.3237 62.7305 58.0617 62.0792 56.7498C62.0391 56.6668 61.502 55.4583 61.459 56.2904C61.4543 56.3951 61.5478 56.9059 61.526 56.9542C61.3802 57.2677 61.1706 56.8862 60.9951 57.1226C60.8192 57.3591 60.63 57.6997 60.355 57.5794C60.1913 57.5072 59.7918 56.6058 59.6663 56.3918C59.3091 55.7739 59.3563 56.9136 59.0357 56.1419C58.7056 55.3685 58.6612 54.0791 58.1772 53.6478C58.4971 54.9586 58.8115 56.3075 59.1305 57.6264C58.4314 57.7569 57.6259 57.5376 56.9317 57.8234C56.8462 57.8601 57.1587 58.5214 57.0738 58.5784C56.7228 58.8134 56.2068 58.4423 55.8616 58.7817C55.5908 59.0487 55.502 59.8974 55.236 60.2022C54.492 58.8309 54.1671 59.5128 53.7462 59.5239C53.5972 59.5291 53.4566 59.1414 53.3165 59.0513C52.7869 58.7231 53.4446 59.9314 53.4268 60.1687C53.3474 61.1835 52.186 58.322 51.7174 58.5902C51.6927 58.6032 51.9831 60.2595 51.9766 60.3726C51.9474 61.1045 51.717 59.8594 51.4985 59.8161C51.0982 59.7375 50.7249 59.4645 50.5312 60.0636C50.5053 60.1445 50.5164 60.4091 50.4864 60.6116C50.4714 60.6157 50.4294 60.6364 50.4144 60.6402C50.3736 60.8811 50.2736 61.0335 49.9949 60.6787C49.9276 60.5933 49.7487 60.0792 49.7132 60.0587C49.0956 59.727 49.6958 61.3273 49.6531 61.9631C49.6177 62.5958 48.8148 61.6375 48.6232 61.3461C48.1148 60.5974 48.6426 60.937 48.6221 60.8524C48.3856 59.8434 48.1786 60.1106 47.9392 60.1078C47.3194 58.5502 47.0624 58.7541 47.692 60.1117C47.7616 60.2597 47.8706 60.0519 47.9392 60.1078C48.3308 61.7176 48.0895 62.033 47.1947 60.7267C46.7789 60.1131 46.6432 59.2674 46.2483 59.7425C46.0692 59.9573 46.5616 61.0055 46.4717 61.3747C46.2601 62.2196 45.2982 61.4286 44.8878 61.7624C44.738 61.8839 45.1254 62.4138 45.0305 62.5173C44.7852 62.7916 44.3438 62.4503 44.1225 62.7922C44.1027 62.8239 44.4021 63.418 44.3096 63.4616C43.608 63.8058 42.8318 63.6447 42.073 63.9194C41.7062 64.0524 41.1872 64.6404 40.7869 64.7157C40.0923 64.85 38.9489 64.2624 38.4797 64.6981C38.175 64.9787 38.4966 65.5631 38.509 66.0428C38.5349 66.9717 37.4365 65.7254 37.2743 65.5295C37.2691 65.5229 37.5194 65.2549 37.2288 65.0054C36.8701 64.3868 37.2765 65.5253 37.2743 65.5295C37.1694 65.4026 36.4993 65.5107 36.4251 65.6777C36.385 65.7686 36.6579 66.3342 36.6326 66.3705C36.028 67.2217 35.2849 67.7026 34.3588 67.779C34.3396 67.7734 34.0861 67.1194 34.044 67.1145C33.4495 67.0296 33.4858 67.9487 33.31 68.5817C33.1309 69.2161 32.7689 69.1912 32.0478 68.1959C31.8227 68.4631 31.1918 68.1664 30.8193 67.9832C30.4471 67.7998 30.9905 69.0524 30.9816 69.0863C30.7104 70.1669 30.0188 69.632 29.3134 69.8454C29.2563 69.8622 29.1938 69.8903 29.1285 69.9267C28.7877 70.1152 28.3745 70.4998 28.1475 70.7541C27.9247 71.0024 27.6136 70.8024 27.4564 71.113C27.4351 71.1547 27.7471 71.6775 27.7475 71.7036C27.803 72.4926 27.2561 71.1036 27.0771 70.8974C26.4292 70.1462 26.0517 69.7628 25.9016 70.3527C25.8652 70.4889 26.6184 72.5083 26.5286 72.6968C26.4055 72.9408 26.1225 72.2234 26.0038 72.4959C25.9935 72.5186 26.2176 72.935 26.0825 72.9828C25.4651 73.2069 24.7001 73.3047 24.1162 73.6766C24.0363 73.7254 24.5001 74.327 24.3911 74.4081C23.8858 74.7847 23.2696 75.0936 22.5551 75.0917C22.3798 75.0882 22.2054 74.5838 22.1005 74.4639C21.4622 73.74 21.8868 75.0747 21.8569 75.1217C21.2076 76.2465 19.8349 75.6069 19.1433 76.7016C19.1111 76.7607 19.4409 78.2741 18.6155 77.2992C18.5607 77.2343 17.7167 76.2363 18.0055 77.0915C18.024 77.1448 18.4799 77.6453 18.2462 77.707C18.0152 77.7671 17.9245 78.3402 17.2752 77.8817C17.0738 77.7353 16.1911 76.7668 16.4708 77.7985C16.4927 77.8689 17.3102 80.0886 16.3294 78.8143C16.1668 78.6053 15.3055 77.1471 15.4497 78.0791C15.4789 78.2591 15.7858 78.513 15.754 78.8103C15.7123 79.2641 15.1503 79.0803 15.2598 79.9016C15.2767 80.0485 15.6688 81.1588 15.0303 80.5298C14.9292 80.4319 14.6829 79.9192 14.5535 79.9257C13.9523 79.9445 13.668 80.5698 12.9712 80.5404C12.7255 80.5303 12.3409 79.6943 12.0243 79.6011C11.7117 79.5056 11.2211 79.5265 11.1964 80.0227C11.1743 80.5171 12.1815 81.6201 11.8384 81.9476C11.3957 82.3072 11.1844 82.5917 9.54017 83.1311C9.22797 83.2222 8.81182 83.335 8.17448 83.404C7.39196 83.4598 6.27395 83.5804 4.4476 82.8307C-0.0201082 80.6652 0.0810034 76.8405 0.00718567 76.3999C-0.0221372 75.2797 0.0693948 75.0513 0.123761 74.6721C0.156145 74.4976 0.184617 74.3741 0.206309 74.2838C0.229577 74.1872 0.252544 74.1 0.274914 74.0199C0.447001 73.4291 0.526878 73.279 0.611753 73.0755C0.759937 72.7474 0.867054 72.5681 0.969212 72.4058C1.17435 72.0838 1.36065 71.858 1.55272 71.6258C1.92801 71.1815 2.29879 70.7789 2.57631 70.3331C2.6856 70.1581 2.14784 70.0668 2.27185 69.7997C2.74244 68.7831 3.16293 66.8916 4.5822 66.5515C5.71744 66.2821 5.88749 67.4291 6.46779 67.089C6.7454 66.9253 5.38327 65.8717 5.36548 65.7897C5.18052 64.965 6.05549 64.9035 6.12705 64.2612C6.14001 64.1316 5.47571 63.9229 5.4928 63.8174C5.54364 63.4584 5.99583 63.249 6.09707 62.9297C6.14182 62.7844 5.66313 62.5692 5.7628 62.4639C5.9031 62.3104 6.08011 62.1878 6.32777 62.0972C6.48908 62.0432 6.68148 62.0035 6.91498 61.9782C6.96831 61.9724 7.45682 62.4479 7.59104 62.2401C7.80902 61.8982 8.4668 61.6791 8.23315 61.0395C8.1624 60.848 7.1002 60.2944 7.97223 60.4077C8.15369 60.4327 9.3965 61.1609 8.4466 60.2909C8.28807 60.1476 7.06351 58.864 8.15454 59.1053C8.44086 59.1704 9.57318 59.5423 9.48386 59.3117C9.46781 59.2784 8.85492 59.0633 8.86142 58.9135C8.89654 58.3865 9.18666 57.9729 9.23379 57.4411C9.24555 57.2979 8.56308 57.169 8.59963 56.9651C8.70276 56.3971 9.1537 55.8916 9.58656 55.5061C9.74394 55.371 10.1735 55.7416 10.2332 55.7566C11.2042 56.0034 10.0942 55.2807 10.0604 55.1785C9.86575 54.5516 10.5856 54.5055 10.6349 54.0522C10.6507 53.9263 10.0534 53.7138 10.0145 53.6671C9.64062 53.1975 10.5597 53.8772 10.7418 53.7952C11.2562 53.5656 11.4364 53.1052 11.5662 52.6777C11.6137 52.5192 10.8823 52.3483 10.9324 52.2097C11.2215 51.374 11.6907 50.6152 12.4349 50.0472C12.5757 49.9419 13.0289 50.2871 13.1579 50.3165C14.0587 50.5251 13.1253 49.667 13.0573 49.5447C12.7458 48.988 13.2502 49.0922 13.3078 48.7781C13.5928 47.2176 14.7327 45.7219 15.5694 44.5408C16.6539 43.0056 17.7846 41.9758 18.4755 40.3317C18.5196 40.2285 17.8045 39.9872 17.8339 39.8938C18.2464 38.7002 19.0714 37.7352 19.4554 36.5192C19.4878 36.4204 18.7911 36.2281 18.8221 36.0586C18.8813 35.7087 19.1125 35.3439 19.4711 35.141C19.6448 35.0414 20.0812 35.5198 20.2451 35.4139C20.6273 35.1688 20.863 34.8213 20.9471 34.4105C20.9814 34.2351 20.2196 34.134 20.3143 33.9318C20.9463 32.5482 21.5163 31.1694 23.0533 30.2318C23.1585 30.1681 24.5079 30.7598 24.3593 30.4323C24.0042 30.2305 23.577 30.0115 23.1926 29.8052C23.996 27.7326 25.4506 26.022 26.5349 24.0892C26.5806 24.0075 25.8139 23.7944 25.8987 23.6344C26.3882 22.7092 26.6626 21.7053 27.8406 21.1096C27.9566 21.0499 29.1502 21.7261 29.1093 21.3529C29.1009 21.2865 29.1544 20.7833 28.9458 20.5385C28.9135 20.5032 28.3053 20.2868 28.3584 20.143C28.6759 19.3145 29.2302 18.5575 29.981 17.9537C30.1033 17.8568 30.6396 18.3034 30.732 18.237C31.3826 17.7639 31.2804 16.8314 32.1447 16.5044C32.7255 16.2865 33.6946 16.9771 34.837 17.2909C34.9982 17.3351 35.1517 17.0939 35.758 17.3897C37.2831 18.1328 38.871 19.1059 40.5041 19.8836C40.8557 20.0513 40.6575 19.5203 41.3906 20.1519C41.4394 20.1947 41.5905 20.5835 41.8431 20.7902C42.0176 20.9334 42.6665 21.1716 42.8734 21.387C43.08 21.6022 42.5202 21.4333 42.7418 21.7279C42.9672 22.0242 43.6932 22.319 43.6288 22.6458ZM29.1363 67.1809C28.6307 66.6967 29.6434 68.8731 29.6281 68.2432C29.6262 68.2102 29.1616 67.2044 29.1363 67.1809ZM57.1015 55.8118C56.494 54.8894 56.7491 56.4416 57.1998 57.1574C57.6406 57.8759 57.2824 56.0927 57.1015 55.8118ZM60.0513 54.2662C59.5124 53.5263 60.1811 56.864 60.4026 56.1141C60.4155 56.0717 60.0821 54.3093 60.0513 54.2662ZM34.6117 18.449C34.6417 18.4605 34.763 18.2929 34.7371 18.2741C34.1094 17.8281 33.8673 18.1636 34.6117 18.449ZM63.1774 52.8836C62.9982 52.4435 62.7278 53.0195 62.9576 53.5648C63.1411 54.0034 63.4012 53.4306 63.1774 52.8836ZM16.4253 71.0991C16.4036 71.0703 16.2599 71.1175 16.3651 71.2901C16.7038 71.8463 16.7875 71.584 16.4253 71.0991ZM68.8996 52.0544C68.0591 52.0405 67.1039 49.3446 68.0971 49.5184C68.275 49.5508 67.8588 50.4588 68.1115 50.6783C68.5642 51.0793 68.5934 49.2935 69.1224 50.1799C69.2132 50.3426 68.945 52.0613 68.8986 52.0584C68.899 52.0571 68.8993 52.0557 68.8996 52.0544ZM27.7582 64.6446C27.7398 64.6182 27.5441 64.6793 27.5536 64.7098C27.7882 65.4427 28.1788 65.3217 27.7582 64.6446ZM8.36629 74.2983C8.31982 74.2483 7.90033 74.4224 7.92122 74.4811C8.33107 75.6857 9.21973 75.3153 8.36629 74.2983ZM39.7555 57.7392C39.6906 56.9441 39.9111 56.7643 40.4161 57.6027C40.1915 57.6328 39.9787 57.7051 39.7555 57.7392Z" fill="#FF9800"/>
<path d="M45.6823 29.2496C45.9209 29.5785 45.738 30.0529 45.4625 30.4253C45.3772 30.5419 44.9486 30.524 44.8707 30.6063C44.7187 30.7671 44.9384 30.8853 44.7548 31.047C44.6919 31.1008 44.0154 31.0998 43.9648 31.1549C43.6922 31.4562 43.8859 31.7017 43.7676 31.993C43.1837 33.4282 43.0498 34.802 42.8653 36.2178C42.8051 36.6858 42.2447 37.2969 42.5524 37.7465C42.5889 37.799 43.1752 37.7146 43.2247 37.7209C43.9825 37.8207 42.7883 37.8698 42.6397 37.9911C42.0531 38.4734 42.0404 38.9547 42.3037 39.3457C42.4174 39.512 43.5724 39.2345 42.9309 39.4679C42.8876 39.484 42.258 39.4943 42.1955 39.548C42.0549 39.6699 42.1847 39.8662 42.1425 39.9547C42.058 40.1264 42.0667 40.1528 42.073 40.3075C42.0762 40.5195 41.7871 40.797 41.9485 41.01C41.9849 41.0554 42.6207 40.9357 42.7365 41.0029C42.8522 41.0702 42.8155 41.278 42.6703 41.3596C42.525 41.4413 42.0184 41.4561 41.9039 41.4783C40.9373 41.6632 42.3085 41.7795 42.3446 41.8074C42.9621 42.3112 42.234 42.8516 42.2812 43.3679C42.3188 43.76 42.6098 44.161 42.6075 44.5375C42.6024 44.9867 42.2877 45.3931 42.3854 45.8229C42.395 45.8682 43.1444 45.7487 43.1576 45.8039C43.2972 46.3909 43.266 46.982 42.8087 47.6205C42.7622 47.6843 42.0934 47.6656 42.0073 47.7328C41.4948 48.1434 40.2375 48.8283 43.139 48.7915C43.0479 49.048 42.9577 49.3569 42.3957 49.6271C42.0341 49.8012 41.3008 49.7267 41.6237 49.8737C41.6957 49.9068 42.3229 49.8008 42.3831 49.8548C42.636 50.0822 42.454 50.3684 42.8018 50.5851C42.874 50.6293 43.4388 50.5663 43.542 50.5716C44.3778 50.6189 43.0306 50.936 42.9352 50.9878C42.2245 51.3809 42.5363 51.5948 42.5448 51.9007C42.5464 51.9716 43.2994 51.8219 43.3283 51.8879C43.4678 52.228 43.4349 52.6064 43.1276 52.9812C43.0575 53.0649 42.4037 53.0505 42.337 53.0934C42.051 53.2819 43.2773 53.2112 43.0265 53.3895C42.9752 53.427 42.4192 53.4568 42.3588 53.4681C41.4112 53.6448 42.7726 53.6079 42.8045 53.6292C43.2394 53.8955 41.8428 54.2171 42.0687 54.4946C42.0972 54.5277 42.7917 54.387 42.8288 54.4838C43.08 55.1271 42.9479 55.8402 42.4438 56.5436C42.3663 56.6525 41.833 56.626 41.7686 56.638C40.7626 56.8304 42.1285 56.7791 42.1826 56.8077C42.5739 57.0359 41.4544 57.3767 43.09 57.4156C42.6243 58.5736 43.6296 59.5939 42.2736 60.8171C42.2581 60.8326 41.586 60.8656 41.5578 60.8963C41.211 61.2654 42.2464 61.1102 43.5388 61.2213C43.8634 61.2493 42.3409 61.5522 42.2295 61.5769C41.819 61.6675 40.8176 61.6975 40.7388 61.7227C40.1204 61.9285 43.4139 61.6178 43.4326 61.8207C43.4276 61.8275 42.8187 61.8535 42.7599 61.8758C42.5751 61.9449 42.8208 61.9771 42.6166 62.0481C42.1439 62.2107 40.5462 62.3928 41.4942 62.4954C41.6171 62.5081 43.4835 62.3105 43.4111 62.5015C43.3806 62.5779 43.4407 62.8974 43.3273 62.9977C43.2141 63.098 42.6063 63.0886 42.5808 63.0973C41.8052 63.4082 41.4671 63.3452 40.2982 63.5684C39.1338 63.7912 41.9331 63.5139 42.2502 63.5368C42.5665 63.5602 41.9249 63.7972 41.7002 63.8611C41.4755 63.925 41.0879 63.9032 40.9619 63.9537C40.1394 64.2867 42.3628 63.947 42.8149 63.9939C43.8855 64.1039 41.8209 64.4402 41.6331 64.6407C41.5824 64.6949 42.0522 64.6135 42.1003 64.6537C42.2845 64.8142 41.6448 64.9707 42.2569 65.122C42.3567 65.1466 43.6202 65.2011 42.7124 65.3854C42.5815 65.4117 42.0599 65.4144 41.9504 65.4995C41.7861 65.6268 41.6903 65.8378 41.8738 65.9424C42.0095 66.0195 42.8541 65.8445 42.5986 65.9785C42.4845 66.038 41.9774 65.9899 41.8047 66.0982C41.632 66.2063 41.6742 66.4379 41.6992 66.5266C41.7247 66.6161 42.3677 66.5102 42.4119 66.5138C42.6656 66.5368 42.9928 66.6839 42.9934 66.6993C43.1391 67.4635 42.1096 68.2692 42.5351 68.983C42.5675 69.0388 43.2468 68.941 43.2588 68.9489C43.562 69.1232 41.7335 69.1233 41.1381 69.3145C42.5215 69.1742 42.2779 69.2794 42.4422 69.4099C42.5225 69.4725 43.0556 69.3886 43.1111 69.3901C43.9346 69.4221 42.8884 69.5839 42.6748 69.6208C41.8888 69.7567 42.8307 69.7491 42.3054 69.8405C41.784 69.9316 40.9962 69.8937 41.0179 70.0289C41.517 70.0242 42.8041 69.8114 43.023 69.8964C43.8506 70.2124 42.8972 71.034 42.8184 71.3541C42.7398 71.6752 42.8393 71.7604 42.6763 71.9635C42.3809 72.3242 43.3318 72.1194 43.7896 72.2867C44.2472 72.4539 41.8731 72.5577 41.3671 72.631C40.8613 72.7036 41.3872 72.69 41.1109 72.7499C40.8346 72.8095 40.4822 72.7621 40.3845 72.855C40.2869 72.9481 41.2108 73.0979 41.7451 73.0814C42.877 73.048 44.0501 72.8385 43.6542 73.1017C43.6307 73.1169 43.005 73.1281 42.9465 73.1834C42.5018 73.6225 42.5062 74.0218 42.1163 74.4492C42.0617 74.5087 41.3656 74.5195 41.326 74.5548C40.9116 74.9216 42.0683 74.7037 43.3798 74.7714C41.6514 74.8791 40.6047 75.0692 40.6154 75.3143C40.6213 75.4614 41.3724 75.3715 41.9115 75.4203C42.0739 75.434 41.5657 75.5839 41.9217 75.5734C43.0852 75.5378 44.3731 75.327 43.879 75.6287C43.8554 75.6421 43.2184 75.6605 43.1833 75.7027C42.9535 75.9752 44.1675 75.9015 44.337 76.1557C44.4694 76.3479 43.764 76.8008 43.6641 77.0485C41.7243 77.2092 42.1877 77.3968 43.5325 77.3729C43.4905 77.5267 43.5813 77.6986 43.4093 77.8651C43.3507 77.9228 42.7863 77.9363 42.7262 77.948C41.7831 78.1301 43.0897 78.087 43.1436 78.1163C43.3661 78.2522 43.323 78.3967 43.2737 78.5372C43.2073 78.74 43.1295 78.9344 43.7029 79.0872C43.7386 79.0965 45.0875 79.0024 44.1116 79.1777C44.0443 79.1893 43.4218 79.1279 43.388 79.2933C43.3536 79.4514 42.6588 79.8371 43.302 80.0085C43.4569 80.0507 44.5622 80.0965 43.7169 80.2772C43.6021 80.3015 43.2143 80.3181 43.0011 80.3571C42.3215 80.481 43.6869 80.4095 42.5369 80.5892C41.3871 80.7697 40.5351 81.0148 41.3522 81.1736C41.376 81.1788 42.4598 81.1422 42.4486 81.2139C42.4296 81.3268 42.2192 81.519 42.2361 81.6376C42.2447 81.6951 42.9119 81.6025 42.925 81.6115C43.332 81.9604 42.7583 82.2996 42.5318 82.7253C42.4885 82.7985 43.4215 82.9567 42.7103 83.1595C41.9319 83.3836 38.6274 83.4815 39.4405 83.784C39.7662 83.9113 43.9576 83.7756 41.814 84.2068C42.3913 84.6992 41.3181 85.2442 42.1206 85.7206C42.1562 85.7422 43.3273 85.7307 43.3155 85.792C43.2954 85.8792 42.7532 85.9612 42.7212 86.0225C42.5726 86.2723 43.054 86.4808 42.9947 86.7157C42.9736 86.8106 42.4077 86.8105 42.3822 86.9203C42.3571 87.031 43.1034 87.0528 42.7522 87.2253C42.4843 87.3542 40.9697 87.5217 40.7986 87.6731C42.2975 87.6168 42.2711 87.7183 42.6727 87.879C42.7506 87.9119 43.2712 87.8565 43.335 87.8714C43.6062 87.9326 43.1756 88.0083 43.4701 88.0634C43.5408 88.0769 44.0529 88.0644 44.1396 88.075C44.8968 88.1655 43.748 88.3844 43.5475 88.4116C42.787 88.5353 43.4535 88.5906 43.1534 88.6801C42.8532 88.7666 42.4785 88.6379 42.2962 88.7357C41.919 88.9457 41.9951 89.1969 41.9586 89.3952C41.9471 89.4751 42.6329 89.4669 42.6471 89.4793C42.8071 89.6815 42.0673 89.7564 43.4034 90.0404C39.8976 89.6756 43.73 90.1975 42.98 90.3763C42.919 90.39 41.2844 90.0718 41.0547 89.9722C40.8246 89.8761 41.3527 89.8758 40.9865 89.7412C40.9018 89.7025 39.3632 89.4257 39.269 89.4145C38.5411 89.272 41.0215 89.4683 41.1586 89.4701C42.6364 89.5035 40.9685 89.2256 40.8533 89.1919C40.3292 88.9988 40.6813 88.8565 40.3019 88.6971C40.0563 88.5964 38.4259 88.5961 38.4752 88.5219C38.6374 88.288 40.9075 88.1111 38.9278 87.9177C38.5054 87.8771 36.7275 88.005 38.1194 87.7511C38.2071 87.7331 39.4813 87.5321 38.6671 87.4806C38.5644 87.4744 38.0458 87.4998 38.0015 87.4875C37.7149 87.4033 38.1248 87.3195 37.9214 87.2258C37.718 87.1326 37.4154 87.0142 37.5843 86.8876C37.6852 86.8094 38.6449 86.6533 38.879 86.6012C39.5532 86.4496 38.4302 86.4201 39.2506 86.3018C40.075 86.1827 41.342 86.2295 41.866 86.0204C40.5193 86.1031 39.1366 86.1801 37.7821 86.26C37.8051 85.8903 38.2145 85.4985 38.1268 85.1219C38.1145 85.0746 37.3948 85.1775 37.363 85.1282C37.2329 84.9328 37.7345 84.7102 37.5118 84.5008C37.3375 84.3493 36.5574 84.2243 36.3501 84.0576C37.8801 83.8212 37.3377 83.6119 37.4624 83.4029C37.5054 83.3305 37.9168 83.3019 38.0469 83.2419C38.5277 83.0159 37.1752 83.2153 36.9571 83.1829C36.027 83.0491 39.1033 82.7811 39.0063 82.5319C39.0023 82.5193 37.3479 82.4846 37.2441 82.4727C36.5665 82.3889 37.8132 82.4029 37.9272 82.3057C38.1355 82.1274 38.5179 81.9821 38.0213 81.8272C37.8743 81.7825 36.8403 81.7282 37.6224 81.5589C37.7248 81.5363 38.2676 81.4988 38.2985 81.4849C38.8106 81.236 37.1065 81.372 36.5196 81.3015C35.9328 81.2308 37.093 80.944 37.4287 80.8767C38.2972 80.7052 37.8098 80.9215 37.8963 80.9205C38.9258 80.8997 38.7374 80.771 38.8158 80.6674C40.4849 80.5126 40.3728 80.38 38.89 80.5563C38.7281 80.5758 38.8905 80.6409 38.8158 80.6674C37.1697 80.7174 36.9468 80.5808 38.4634 80.2766C39.1742 80.1337 40.0177 80.1421 39.6903 79.9156C39.5424 79.8129 38.3958 79.951 38.0741 79.8808C37.3401 79.7213 38.388 79.3369 38.1986 79.1121C38.1299 79.0306 37.5076 79.1686 37.4389 79.1146C37.4069 79.0897 37.3943 79.0637 37.3941 79.0369C37.3937 78.9165 37.6717 78.7791 37.461 78.6694C37.4371 78.6574 36.7811 78.7475 36.7686 78.7004C36.6612 78.3437 37.0556 77.983 37.0353 77.6078C37.0253 77.4265 36.6327 77.1162 36.6899 76.9253C36.7851 76.5917 37.708 76.0983 37.4508 75.8328C37.2863 75.6649 36.6307 75.7608 36.1749 75.7215C35.2917 75.6462 36.8277 75.2429 37.0659 75.1855C37.0738 75.1838 37.2428 75.3292 37.5739 75.2155C38.2746 75.1057 37.0692 75.187 37.0659 75.1855C37.2199 75.1486 37.342 74.8158 37.2105 74.762C37.1387 74.7331 36.5159 74.8063 36.4903 74.7907C35.896 74.4251 35.7004 74.0091 35.9553 73.5533C35.9673 73.5447 36.6667 73.4959 36.6861 73.4766C36.9756 73.205 36.1075 73.1201 35.5826 72.9585C35.0579 72.7968 35.2135 72.6175 36.4019 72.3909C36.2377 72.2505 36.749 71.9866 37.0596 71.8314C37.3703 71.6765 36.0092 71.7758 35.9814 71.7669C35.0911 71.4928 35.8508 71.2112 35.9412 70.8459C35.9864 70.67 35.7597 70.3449 35.5947 70.1691C35.4621 70.0308 35.7728 69.9121 35.5573 69.7929C35.5285 69.7771 34.9248 69.8478 34.901 69.8442C34.1638 69.7569 35.6498 69.701 35.9115 69.6472C36.8628 69.4517 37.3687 69.3379 36.8998 69.1832C36.7924 69.1474 34.6504 69.2011 34.5187 69.1299C34.3514 69.0369 35.1186 69.0111 34.9239 68.9152C34.908 68.9069 34.437 68.9497 34.4518 68.8787C34.5139 68.5454 34.7586 68.182 34.6827 67.8537C34.6741 67.8089 33.9318 67.9316 33.9071 67.8678C33.7921 67.5699 33.7897 67.2206 34.1142 66.8979C34.1963 66.8172 34.7235 66.8177 34.8775 66.7883C35.8091 66.6095 34.4312 66.5892 34.4032 66.5685C33.6995 66.0785 34.8987 65.5466 34.2622 65.0438C34.225 65.0166 32.7405 64.9095 33.9872 64.6956C34.0701 64.6812 35.3459 64.466 34.4595 64.4502C34.404 64.4492 33.7482 64.5715 33.8058 64.4524C33.8632 64.3327 33.4058 64.1905 34.1193 63.9747C34.344 63.9064 35.6157 63.6804 34.5815 63.6237C34.5093 63.6205 32.1798 63.5963 33.7666 63.3774C34.0278 63.3415 35.7156 63.2089 34.8357 63.1094C34.6652 63.0905 34.2942 63.1838 34.0517 63.1162C33.678 63.0134 34.1139 62.7926 33.3484 62.6943C33.2129 62.6774 32.0576 62.6554 32.918 62.4823C33.0527 62.4552 33.6183 62.4353 33.6769 62.3783C33.9578 62.1067 33.5588 61.8812 33.9265 61.5957C34.0556 61.4947 34.9699 61.4612 35.2057 61.347C35.4416 61.2332 35.6596 61.0227 35.2354 60.9644C34.8109 60.9045 33.3693 61.1356 33.2407 61.0017C32.6822 60.4215 33.4779 59.7104 33.5483 59.0777C33.5588 58.9829 33.0464 59.1053 33.0246 58.9688C32.9417 58.4639 32.3788 57.6308 33.4436 57.0951C34.2964 56.6649 35.0077 57.0511 35.3437 56.7497C35.5039 56.6043 33.8049 56.6097 33.7491 56.5827C33.1826 56.319 33.9117 56.0464 33.6584 55.79C33.6059 55.7372 32.9271 55.8526 32.89 55.807C32.757 55.6519 33.047 55.4511 32.9773 55.2972C32.9445 55.2283 32.4235 55.2869 32.4581 55.2177C32.5349 55.0531 32.7422 54.894 33.2182 54.699C33.2616 54.6813 33.9192 54.7178 33.9334 54.6007C33.9544 54.4114 34.417 54.1377 33.8997 53.9659C33.7442 53.915 32.5507 54.0166 33.3628 53.8073C33.5324 53.7634 34.9685 53.6754 33.7164 53.6229C33.5084 53.614 31.8149 53.4898 32.8798 53.2632C33.16 53.2036 34.3247 53.0117 34.1338 52.9509C34.1035 52.9431 33.4661 53.0405 33.3981 52.9826C33.1695 52.7776 33.2174 52.5371 32.9965 52.3241C32.9363 52.2673 32.281 52.4168 32.2124 52.3304C32.0228 52.0926 32.1641 51.7618 32.3501 51.4954C32.4199 51.3971 32.9748 51.4125 33.034 51.4006C33.9972 51.209 32.6792 51.2614 32.5995 51.2327C32.1221 51.0538 32.7242 50.833 32.5434 50.6448C32.4951 50.5927 31.8727 50.6869 31.8159 50.6806C31.2605 50.6128 32.392 50.6007 32.5096 50.5168C32.8426 50.2815 32.7723 50.0571 32.6742 49.8561C32.6372 49.7824 31.919 49.9315 31.8942 49.8646C31.7339 49.4711 31.7669 49.048 32.1325 48.6179C32.2027 48.5369 32.7656 48.5349 32.8919 48.5083C33.7756 48.3236 32.5439 48.2731 32.4247 48.2472C31.8806 48.1295 32.3691 48.0217 32.2644 47.886C31.744 47.2254 31.9946 46.318 32.1391 45.6391C32.3236 44.7489 32.7964 44.0288 32.5862 43.2137C32.5735 43.1617 31.8347 43.2797 31.8142 43.2358C31.5837 42.6637 31.8242 42.0655 31.5582 41.4969C31.5377 41.4501 30.8389 41.5811 30.7823 41.5081C30.6613 41.3589 30.682 41.1545 30.893 40.9742C30.9946 40.8864 31.6085 40.9386 31.6985 40.8513C31.9092 40.6489 31.9423 40.4486 31.8129 40.2705C31.7563 40.1949 31.0461 40.3785 31.0287 40.2753C30.8953 39.573 30.7102 38.8868 31.5811 38.0898C31.641 38.0351 33.1022 37.864 32.8121 37.7841C32.4048 37.8118 31.9266 37.854 31.4918 37.8885C31.1675 36.876 31.5861 35.811 31.5743 34.7699C31.5736 34.726 30.804 34.8692 30.7988 34.7846C30.7676 34.2951 30.511 33.838 31.2388 33.2712C31.3099 33.215 32.6777 33.1212 32.4584 32.9931C32.4185 32.9706 32.2171 32.7664 31.9157 32.7353C31.8703 32.7315 31.2365 32.8274 31.2117 32.758C31.0789 32.3543 31.1866 31.9089 31.5401 31.4635C31.5984 31.3915 32.2833 31.4029 32.3307 31.3511C32.6617 30.9841 32.1138 30.6641 32.702 30.2895C33.0982 30.0385 34.2785 30.0155 35.4234 29.8005C35.5849 29.7701 35.5991 29.6349 36.2705 29.5693C37.9586 29.404 39.8144 29.3067 41.6131 29.1229C42.0006 29.0835 41.5672 28.9419 42.5138 28.9654C42.5772 28.9673 42.8996 29.0692 43.2204 29.0732C43.4422 29.0761 44.1221 28.9765 44.4075 28.9971C44.6927 29.0177 44.1242 29.1174 44.4614 29.1634C44.8027 29.209 45.5772 29.1081 45.6823 29.2496ZM38.4475 71.131C39.0901 70.9552 36.6973 71.1438 37.2805 71.2238C37.3116 71.2274 38.416 71.1399 38.4475 71.131ZM40.0196 85.3645C41.0646 85.1385 39.5043 85.146 38.6968 85.3132C37.89 85.4786 39.7027 85.4325 40.0196 85.3645ZM40.8939 86.8858C41.7168 86.6578 38.3178 86.8346 39.0152 86.977C39.0547 86.9857 40.8461 86.8991 40.8939 86.8858ZM35.7985 30.3008C35.8301 30.2964 35.8527 30.1981 35.821 30.1986C35.0572 30.2141 35.0125 30.4105 35.7985 30.3008ZM41.7956 88.3948C42.2554 88.3346 41.7205 88.1823 41.1496 88.2641C40.6905 88.3281 41.2239 88.4674 41.7956 88.3948ZM40.4664 64.7469C40.5018 64.7419 40.528 64.6709 40.3267 64.6898C39.6784 64.7507 39.8697 64.8297 40.4664 64.7469ZM41.5478 90.7944C41.7678 90.5266 44.5711 90.9103 44.1183 91.3567C44.038 91.4269 43.3119 90.9178 43.0363 90.9589C42.5418 91.0077 44.1828 91.6697 43.221 91.5662C43.0471 91.5412 41.5304 90.8058 41.5443 90.7926C41.5455 90.7932 41.5466 90.7938 41.5478 90.7944ZM41.3138 70.8144C41.3452 70.8093 41.3669 70.7106 41.3353 70.7109C40.5717 70.7244 40.5276 70.9233 41.3138 70.8144ZM41.5976 60.6184C41.6645 60.6067 41.7083 60.3811 41.6457 60.3799C40.3944 60.373 40.3019 60.8291 41.5976 60.6184ZM43.6127 77.0567C44.3853 77.0948 44.4857 77.2095 43.5334 77.3723C43.5757 77.2669 43.5745 77.1638 43.6127 77.0567Z" fill="#FF9800"/>
<path d="M91.9843 31.0308C92.1425 31.6434 91.8539 32.4058 91.4983 32.9724C91.3878 33.1504 90.9719 33.0205 90.8765 33.1418C90.6906 33.379 90.8788 33.6302 90.6616 33.8615C90.5876 33.9379 89.9247 33.7793 89.8625 33.8607C89.5261 34.3069 89.6595 34.7695 89.4767 35.2351C88.5752 37.5302 88.1303 39.8248 87.6298 42.1817C87.4656 42.9558 86.7786 43.8625 86.9798 44.6969C87.0039 44.7943 87.598 44.7851 87.6451 44.807C88.3663 45.1492 87.1837 44.9598 87.0108 45.1313C86.328 45.8119 86.2091 46.6215 86.3811 47.3463C86.4561 47.6542 87.6508 47.4453 86.9698 47.6955C86.9237 47.7129 86.3036 47.5879 86.2303 47.6648C86.0655 47.8399 86.1501 48.1989 86.0891 48.3408C85.9686 48.6131 85.9713 48.6597 85.9438 48.9226C85.9008 49.2811 85.5568 49.6834 85.6691 50.0827C85.6949 50.1677 86.3452 50.1075 86.4444 50.2473C86.5435 50.3873 86.4627 50.7298 86.3026 50.8347C86.1424 50.9398 85.6416 50.8521 85.5243 50.864C84.5351 50.9625 85.8568 51.4686 85.8865 51.5224C86.386 52.504 85.5564 53.2557 85.4947 54.1472C85.4502 54.8139 85.6537 55.5574 85.5751 56.1918C85.4788 56.9509 85.0873 57.5772 85.0998 58.3134C85.1003 58.3923 85.8616 58.349 85.8638 58.4457C85.8861 59.4681 85.7428 60.4551 85.175 61.4356C85.1174 61.5325 84.4612 61.3659 84.3641 61.4606C83.7832 62.0485 82.4207 62.965 85.2929 63.4744C85.1593 63.8787 85.0183 64.3872 84.4193 64.7275C84.0334 64.9544 83.3205 64.6867 83.6161 64.9984C83.682 65.0683 84.3192 65.0088 84.3701 65.1111C84.5843 65.5339 84.3598 65.996 84.6729 66.4123C84.7381 66.4972 85.3067 66.494 85.4081 66.5215C86.229 66.754 84.8495 67.0383 84.7479 67.1072C83.9893 67.6365 84.2713 68.0417 84.2437 68.5594C84.2371 68.6769 85.0026 68.5517 85.0237 68.6643C85.0371 68.7424 85.0474 68.82 85.0545 68.8969C85.0996 69.4187 85.0087 69.9206 84.7201 70.4077C84.6442 70.5345 83.993 70.4251 83.9235 70.4865C83.6255 70.7602 84.8539 70.7856 84.5944 71.0465C84.5413 71.1005 83.9843 71.0846 83.9234 71.0957C82.9681 71.2749 84.3312 71.3637 84.3624 71.3974C84.7894 71.8652 83.3872 72.2303 83.626 72.6823C83.6559 72.7321 84.3473 72.5569 84.3883 72.6959C84.5274 73.1619 84.5944 73.6111 84.578 73.9068C84.5648 74.0464 84.5397 74.1443 84.4178 74.1166C84.311 74.1049 83.9887 73.8833 83.585 73.8793C83.3612 73.8902 83.3409 74.4448 83.2957 74.4977C83.0931 74.9681 83.1589 74.8972 83.1709 74.6747C83.1934 74.4551 83.1952 74.0999 83.1822 74.0737C83.0758 73.8878 83.1127 74.091 83.2069 74.1025C83.2908 74.1183 83.3771 73.959 83.1495 73.1737C83.4527 73.2076 83.8635 73.0529 84.261 72.8541C85.4864 72.2404 86.5273 71.3713 88.257 71.5729C88.2857 71.5749 88.6052 72.168 88.6612 72.1693C89.3435 72.188 88.6994 71.3577 88.3183 70.0853C88.2193 69.7678 89.2949 70.9101 89.3785 70.9905C89.6829 71.2898 90.147 72.1811 90.2171 72.2318C90.7827 72.6199 88.9377 69.8743 89.2166 69.689C89.2286 69.6877 89.527 70.2203 89.5843 70.255C89.7641 70.364 89.7039 70.1134 89.8927 70.2395C90.3272 70.5323 91.2856 71.8253 91.0198 70.8749C90.9836 70.7525 89.8805 69.2341 90.1781 69.1375C90.2974 69.1011 90.7158 68.7705 90.9067 68.7836C91.0979 68.797 91.3646 69.3491 91.3883 69.3644C92.1805 69.7822 92.2503 70.139 93.1116 70.978C93.9746 71.8096 92.2781 69.565 92.1608 69.2623C92.0437 68.9608 92.6727 69.3178 92.8707 69.4564C93.0671 69.5965 93.2203 69.9611 93.3513 70.0257C94.2144 70.4414 92.6732 68.7902 92.5196 68.3478C92.1467 67.3063 93.6145 68.8102 93.9876 68.7798C94.0887 68.7712 93.7427 68.4384 93.7747 68.3573C93.9039 68.0414 94.443 68.4454 94.3354 67.7666C94.3201 67.6544 93.732 66.5173 94.4486 67.1196C94.5521 67.2063 94.8268 67.6534 94.9987 67.6628C95.2565 67.6773 95.5874 67.5488 95.6317 67.2828C95.6619 67.0882 94.9771 66.5465 95.2902 66.629C95.4299 66.6657 95.6398 67.1458 95.8761 67.1821C96.11 67.2208 96.404 66.9346 96.5023 66.8232C96.604 66.7089 96.1091 66.2796 96.0891 66.2388C95.9787 66.0017 95.9785 65.5795 95.9963 65.5639C96.8567 64.6705 98.4686 64.6082 98.9729 63.4364C99.0123 63.3455 98.4425 62.9595 98.4431 62.9411C98.4134 62.5224 99.6744 63.8605 100.298 64.0569C99.1851 63.2219 99.4713 63.2683 99.4816 63.0009C99.4843 62.8727 99.0178 62.5976 98.9795 62.5568C98.4095 61.9529 99.3183 62.4957 99.5135 62.5938C100.224 62.9656 99.5138 62.3385 99.9915 62.5785C100.473 62.8048 101.031 63.3827 101.151 63.1778C100.762 62.8602 99.5837 62.291 99.4839 62.054C99.3927 61.857 99.3849 61.6972 99.417 61.5799C99.596 61.0597 100.44 60.6327 100.637 60.2942C100.888 59.8709 100.837 59.6934 101.083 59.4646C101.521 59.0372 100.537 58.9986 100.165 58.6212C99.7872 58.2519 102.094 58.8228 102.605 58.8709C103.116 58.9124 102.609 58.7649 102.896 58.7511C103.183 58.7345 103.501 58.9332 103.631 58.7973C103.763 58.6542 102.923 58.1087 102.398 57.9991C101.288 57.7568 100.093 57.7732 100.543 57.4923C100.57 57.4752 101.184 57.6051 101.255 57.5353C101.797 56.9697 101.854 56.3052 102.267 55.6499C102.324 55.5585 103.02 55.626 103.062 55.5711C103.489 54.9876 102.323 55.2222 101.011 55.0088C102.742 54.9799 103.794 54.7516 103.768 54.2973C103.751 54.0283 103.002 54.1426 102.456 54.0325C102.291 54.0012 102.788 53.7658 102.431 53.7731C101.263 53.8027 99.9919 54.1128 100.456 53.6587C100.478 53.6379 101.117 53.6108 101.147 53.5444C101.341 53.1088 100.131 53.2407 99.9172 52.8634C99.7498 52.5698 100.36 51.8507 100.385 51.4413C102.283 51.0064 101.754 50.7179 100.418 50.9126C100.408 50.6549 100.262 50.4115 100.372 50.1252C100.409 50.0259 100.965 49.9213 101.021 49.8939C101.889 49.4604 100.604 49.7231 100.54 49.6875C99.8911 49.2692 100.666 48.478 99.559 48.2711C99.519 48.2635 98.2421 48.7079 99.1132 48.2207C99.173 48.1864 99.8159 48.1466 99.7644 47.8772C99.7159 47.6145 100.192 46.8536 99.4655 46.7499C99.2902 46.723 98.1951 46.9561 98.9056 46.4446C99.002 46.3749 99.367 46.2411 99.5493 46.1204C100.127 45.7294 98.8576 46.2378 99.8556 45.6294C100.153 45.4472 100.42 45.2625 100.625 45.0919C100.616 45.0615 100.559 44.9906 100.542 44.9639C100.895 44.4444 100.94 44.0981 100.334 44.2591C100.308 44.2648 99.4314 44.9075 99.3633 44.8037C99.2523 44.6338 99.2356 44.273 99.0947 44.124C99.0269 44.0529 98.5643 44.5452 98.5438 44.5406C97.8201 44.2909 97.9553 43.5418 97.671 42.8392C97.6169 42.7063 96.6906 43.0505 97.0545 42.3742C97.451 41.6322 100.078 39.6106 99.06 39.6663C98.6418 39.6773 95.3632 42.3022 96.6261 40.4761C95.6188 40.1891 95.8401 38.8148 94.6536 38.7035C94.6003 38.6979 93.6783 39.4279 93.6245 39.351C93.5462 39.2351 93.8759 38.7917 93.8304 38.695C93.651 38.2817 93.0472 38.3417 92.8048 38.0036C92.7129 37.8772 93.1484 37.5125 93.0354 37.3589C92.9201 37.2041 92.3218 37.6607 92.3869 37.226C92.4383 36.8965 93.3485 35.6638 93.2772 35.3543C92.2444 36.4424 92.1408 36.3023 91.645 36.384C91.5501 36.4011 91.2425 36.8276 91.1795 36.8556C90.9177 36.9804 91.1305 36.5887 90.8546 36.7338C90.7882 36.7685 90.4431 37.147 90.3697 37.1972C89.7385 37.6429 90.2863 36.5873 90.3832 36.4054C90.7398 35.7035 90.2325 36.145 90.3175 35.8215C90.398 35.4944 90.8173 35.3611 90.7999 35.1055C90.7659 34.5785 90.3395 34.3301 90.0498 34.074C89.9326 33.9747 89.5957 34.5792 89.5691 34.5774C89.2329 34.5341 89.3708 33.739 88.4878 34.7902C89.2479 33.4945 89.2463 33.305 89.0657 33.4963C89.0596 33.4914 89.0375 33.4821 89.0311 33.4775C88.7959 33.7453 88.2417 34.7005 88.1837 34.2236C88.1743 34.1555 88.8746 32.6443 89.0869 32.4754C89.2463 32.351 89.2703 32.6276 89.4295 32.6846C89.4451 32.6956 89.4984 32.718 89.5132 32.73C89.5751 32.7579 89.6555 32.7624 89.7647 32.7159C89.8506 32.662 91.0153 31.5677 91.118 31.5265C91.8501 31.1435 90.3822 33.1583 90.3115 33.2753C89.5588 34.5546 90.8316 33.4187 90.9803 33.3898C91.6258 33.227 91.6618 33.7165 92.1532 33.639C92.4773 33.595 93.5625 32.3785 93.6636 32.534C93.9885 33.0422 92.5971 34.8516 94.3127 33.7513C94.6812 33.5197 95.8157 32.1406 95.1559 33.4418C95.1161 33.5254 94.4537 34.6621 95.1348 34.1912C95.221 34.1321 95.5785 33.7555 95.6296 33.7439C95.9679 33.6765 95.7696 34.0596 96.0588 34.0633C96.3516 34.0706 96.7313 34.028 96.7826 34.3252C96.8134 34.503 96.2601 35.3164 96.142 35.5329C95.7982 36.1528 96.7316 35.5038 96.2301 36.171C95.7251 36.8407 94.6715 37.5701 94.5062 38.1645C95.4709 37.2213 96.4719 36.2641 97.4482 35.3216C97.9006 35.8447 98.0587 36.6329 98.5766 37.0884C98.6419 37.144 99.1063 36.5801 99.189 36.6261C99.5364 36.8232 99.3956 37.4267 99.8169 37.5749C100.151 37.6945 100.936 37.4105 101.304 37.5235C100.302 38.7139 101.013 38.7128 101.14 39.0623C101.186 39.1843 100.875 39.4558 100.833 39.6098C100.683 40.1846 101.592 39.1559 101.811 39.0785C102.751 38.7521 100.475 40.8383 100.831 41.1218C100.85 41.1384 102.269 40.2561 102.373 40.2185C103.041 39.9642 101.973 40.6307 101.988 40.8304C102.016 41.1966 101.854 41.6069 102.439 41.5423C102.611 41.5212 103.543 41.0285 103.072 41.6952C103.01 41.7825 102.592 42.13 102.581 42.1661C102.421 42.7901 103.717 41.6757 104.294 41.4577C104.452 41.3981 104.517 41.4319 104.523 41.5179C104.701 41.7996 105.301 42.5454 105.396 42.865C105.358 43.1088 104.817 43.5874 104.614 43.7377C103.892 44.2761 104.21 43.7576 104.127 43.7842C103.143 44.1018 103.412 44.2639 103.412 44.4776C101.892 45.1857 102.088 45.3819 103.417 44.6959C103.562 44.6199 103.358 44.5441 103.412 44.4776C104.982 43.9609 105.312 44.19 104.024 45.0928C103.419 45.5141 102.59 45.7024 103.046 46.0094C103.252 46.1518 104.294 45.6493 104.658 45.7148C105.49 45.8685 104.683 46.7916 104.987 47.1578C105.099 47.2944 105.644 46.9372 105.742 47.0254C106.004 47.2644 105.635 47.6641 105.959 47.8862C105.989 47.9063 106.6 47.6442 106.637 47.735C106.929 48.4263 106.694 49.1645 106.862 49.9221C106.944 50.2869 107.442 50.8793 107.442 51.2886C107.45 52.0017 106.616 52.9659 106.906 53.5148C107.093 53.8804 107.742 53.7364 108.207 53.8684C109.109 54.1381 107.581 54.8434 107.34 54.9201C107.333 54.9218 107.16 54.5947 106.83 54.7908C106.128 54.9278 107.337 54.9154 107.34 54.9201C107.189 54.9793 107.058 55.6544 107.183 55.7884C107.253 55.8612 107.879 55.8163 107.904 55.8555C108.469 56.7894 108.574 57.8218 108.153 58.7872C108.138 58.803 107.446 58.6872 107.42 58.7245C107.038 59.2366 107.824 59.7225 108.223 60.3192C108.622 60.9111 108.348 61.2993 107.112 61.2624C107.164 61.6587 106.498 62.0131 106.098 62.1818C105.699 62.3499 106.967 62.8499 106.983 62.8865C107.49 64.0038 106.554 64.2042 106.048 64.9349C106.035 64.9529 106.023 64.9723 106.01 64.9927C105.701 65.5319 105.384 66.3572 105.235 66.8011C105.106 67.1862 104.729 67.1519 104.688 67.5356C104.683 67.5858 105.186 67.9292 105.196 67.9539C105.537 68.6922 104.488 67.6245 104.237 67.514C103.321 67.1111 102.85 66.8759 102.922 67.4857C102.945 67.6181 104.36 69.2464 104.323 69.473C104.282 69.7529 103.778 69.1687 103.751 69.4707C103.748 69.4962 104.098 69.8152 103.979 69.9116C103.438 70.3541 102.733 70.6678 102.275 71.1677C102.212 71.2336 102.813 71.6975 102.729 71.803C102.328 72.3044 101.799 72.7434 101.117 72.8704C100.947 72.9007 100.673 72.4427 100.547 72.3458C99.7876 71.7554 100.476 72.9704 100.456 73.0215C100.049 74.2278 98.6366 73.7698 98.1504 74.8862C98.1284 74.9471 98.6456 76.3992 97.7306 75.5085C97.6684 75.4504 96.7434 74.5313 97.1265 75.3442C97.1501 75.3953 97.6449 75.8556 97.4289 75.9305C97.2168 76.0026 97.1948 76.5666 96.5268 76.1472C96.316 76.0155 95.3992 75.0893 95.7638 76.0862C95.7935 76.1531 96.7598 78.3063 95.7239 77.0767C95.5535 76.8742 94.617 75.4643 94.8375 76.3649C94.8802 76.5394 95.188 76.7867 95.1824 77.0757C95.1737 77.5211 94.6458 77.3296 94.7975 78.1334C94.8248 78.2755 95.2603 79.3647 94.6244 78.7381C94.5252 78.6397 94.2631 78.1359 94.146 78.1367C93.586 78.1392 93.381 78.7181 92.7685 78.6392C92.5548 78.6105 92.144 77.7899 91.8697 77.6719C91.5958 77.5539 91.1783 77.5336 91.2429 77.9825C91.3062 78.4325 92.2293 79.5762 92.0547 79.8176C91.2937 80.8592 89.8572 80.7256 88.7657 81.1582C88.7512 81.1641 88.7368 81.1701 88.7223 81.1763C88.5389 81.2538 88.9338 81.6338 88.6726 81.784C88.1476 82.0632 87.5615 82.601 85.9075 83.1122C85.074 83.3417 83.8248 83.6195 82.0554 83.2968C80.2766 83.0063 78.4695 81.7588 77.8275 80.7211C77.2945 79.9037 77.3133 79.5129 77.3988 79.3206C77.494 79.125 77.7046 79.1092 77.9106 79.1077C78.1147 79.1046 78.3291 79.1302 78.4163 79.0353C78.5047 78.9385 78.459 78.7342 78.2774 78.3209C77.9691 77.5863 76.2001 77.689 76.07 77.5201C75.0193 76.283 75.6841 75.489 75.3264 74.7786C75.2566 74.6357 74.6002 74.886 74.548 74.7589C74.362 74.3059 74.6218 73.8419 74.5347 73.4867C74.4941 73.3245 73.9743 73.3972 74.0025 73.2384C74.0659 72.8745 74.2677 72.541 74.7442 72.2095C74.7876 72.1796 75.4476 72.3395 75.4611 72.1035C75.4811 71.7082 75.9529 71.2464 75.4463 70.84C75.294 70.7209 74.0958 70.7304 74.9204 70.4513C75.0929 70.3953 76.5311 70.446 75.2869 70.1579C75.0798 70.1186 73.4034 69.5787 74.4862 69.3479C74.771 69.2848 75.9493 69.132 75.7661 68.987C75.7368 68.967 75.0925 69.0383 75.0312 68.9173C75.0053 68.8634 74.984 68.8089 74.966 68.7539C74.8413 68.4012 74.8794 68.0007 74.7121 67.6446C74.6597 67.5317 73.99 67.6819 73.9334 67.5133C73.7769 67.0383 73.9639 66.4828 74.1883 66.0384C74.2721 65.8801 74.8193 66.0113 74.8797 66.0017C75.862 65.8494 74.5495 65.6885 74.4751 65.6218C74.0307 65.2038 74.6612 64.9373 74.5132 64.5682C74.474 64.4661 73.8433 64.5098 73.7882 64.4874C73.2505 64.2553 74.3709 64.4599 74.5009 64.3337C74.869 63.9843 74.8371 63.5865 74.7754 63.2081C74.7515 63.0744 74.0166 63.1872 74.0036 63.0673C73.9134 62.3507 74.023 61.6119 74.4635 60.9384C74.5476 60.8139 75.103 60.9268 75.2325 60.9073C76.1379 60.7739 74.9331 60.4301 74.8206 60.3595C74.3066 60.0403 74.8086 59.9553 74.7311 59.7009C74.345 58.4343 74.7715 56.939 75.053 55.7971C75.4164 54.3085 76.0329 53.1723 75.9997 51.7362C75.9983 51.6441 75.2473 51.6814 75.2366 51.6013C75.1319 50.5772 75.498 49.6021 75.3611 48.5704C75.3512 48.4864 74.6366 48.5515 74.5969 48.4147C74.5106 48.1337 74.5758 47.7894 74.8227 47.5286C74.9418 47.4013 75.5328 47.6304 75.6403 47.5013C75.8918 47.2032 75.9683 46.8706 75.8808 46.5362C75.8421 46.3938 75.1043 46.5461 75.1102 46.3653C75.1347 45.1373 75.1067 43.9247 76.1404 42.7669C76.2113 42.6876 77.6831 42.7322 77.4166 42.5296C77.0109 42.483 76.5323 42.445 76.098 42.4038C76.008 40.6074 76.6609 38.8915 76.8875 37.119C76.8968 37.0443 76.1096 37.1092 76.1238 36.9643C76.2053 36.1237 76.0583 35.2911 76.9021 34.4955C76.9847 34.4167 78.347 34.5749 78.1614 34.3066C78.1274 34.2592 77.977 33.8658 77.6887 33.743C77.6451 33.726 77.0017 33.7415 76.9934 33.618C76.9561 32.9007 77.164 32.1717 77.6131 31.4975C77.6868 31.3888 78.3555 31.5674 78.4139 31.4906C78.8228 30.945 78.3596 30.2743 79.0224 29.7761C79.4685 29.4427 80.6306 29.678 81.8023 29.5797C81.9676 29.5657 82.0127 29.3398 82.6858 29.3847C84.3785 29.4969 86.2198 29.7635 88.0252 29.8701C88.414 29.8932 88.0218 29.5525 88.9443 29.8124C89.0059 29.8304 89.2985 30.0781 89.612 30.1595C89.8287 30.216 90.518 30.2052 90.793 30.3065C91.0677 30.4077 90.4876 30.4445 90.8075 30.6009C91.1315 30.7575 91.9139 30.7666 91.9843 31.0308ZM104.298 62.8501C103.6 62.812 105.774 63.8295 105.367 63.3277C105.344 63.3023 104.332 62.8508 104.298 62.8501ZM96.7544 37.8914C96.1795 38.8197 97.4299 37.8746 97.8855 37.1689C98.3397 36.4631 96.9263 37.6076 96.7544 37.8914ZM94.2151 36.4358C93.8566 37.2522 96.2778 34.8596 95.5471 35.1077C95.5054 35.1214 94.2357 36.3883 94.2151 36.4358ZM82.0547 30.5152C82.0867 30.5151 82.1315 30.3538 82.1004 30.3472C81.3481 30.1958 81.2591 30.5185 82.0547 30.5152ZM91.5982 35.1419C91.3633 35.5488 91.9348 35.348 92.224 34.8382C92.4537 34.425 91.8865 34.6319 91.5982 35.1419ZM94.7122 69.7004C94.6874 69.6745 94.5741 69.7214 94.6997 69.8798C95.1033 70.3909 95.1242 70.1423 94.7122 69.7004ZM87.8964 32.4887C88.0018 32.82 87.1891 35.6527 86.3821 34.6632C86.2736 34.4999 87.2701 34.228 87.2392 33.8787C87.238 33.5836 86.9206 33.7335 86.6065 33.7915C86.2994 33.8563 86.0059 33.8301 86.2581 33.3808C86.3724 33.2504 87.9135 32.4971 87.8999 32.4867C87.8987 32.4874 87.8976 32.488 87.8964 32.4887ZM101.601 61.8218C101.571 61.8129 101.477 61.9495 101.503 61.966C102.158 62.3679 102.357 62.0737 101.601 61.8218ZM88.2384 72.3558C88.1955 72.303 87.8433 72.4435 87.8661 72.5023C88.3422 73.6713 89.0667 73.3841 88.2384 72.3558ZM100.434 51.4235C99.65 51.4385 99.5183 51.2837 100.417 50.9136C100.409 51.0871 100.442 51.2513 100.434 51.4235Z" fill="#FF9800"/>
<path d="M153.045 6.63678C152.941 7.23641 152.373 7.77532 151.824 8.11552C151.652 8.22268 151.328 7.93226 151.193 7.99685C150.93 8.12348 150.999 8.4222 150.709 8.53037C150.611 8.56517 150.076 8.14411 149.987 8.1883C149.503 8.43262 149.438 8.8903 149.085 9.21725C147.344 10.8268 146.018 12.6273 144.614 14.4606C144.15 15.0668 143.164 15.5586 143.01 16.3671C142.992 16.4616 143.533 16.7083 143.566 16.7474C144.08 17.3526 143.088 16.6815 142.862 16.7573C141.968 17.0595 141.534 17.7094 141.396 18.4115C141.34 18.71 142.503 19.042 141.787 18.9662C141.738 18.9616 141.229 18.5873 141.132 18.6224C140.913 18.7012 140.841 19.0552 140.729 19.1509C140.51 19.3346 140.494 19.3761 140.363 19.5918C140.18 19.8816 139.703 20.0895 139.643 20.4814C139.632 20.566 140.244 20.7933 140.277 20.957C140.309 21.1212 140.099 21.3814 139.91 21.4062C139.722 21.4298 139.306 21.1379 139.195 21.098C138.262 20.7584 139.25 21.7647 139.255 21.8241C139.305 22.8926 138.252 23.1863 137.832 23.9332C137.52 24.4925 137.398 25.2275 137.07 25.7403C136.67 26.3616 136.064 26.728 135.769 27.3782C135.738 27.446 136.441 27.7394 136.404 27.8228C136.005 28.7168 135.465 29.5173 134.549 30.1158C134.456 30.176 133.936 29.7441 133.808 29.785C133.045 30.0363 131.437 30.2364 133.807 31.9324C133.511 32.238 133.183 32.5936 132.494 32.6386C132.053 32.6636 131.525 32.1193 131.66 32.5174C131.69 32.6065 132.287 32.8363 132.29 32.9469C132.305 33.4046 131.906 33.7095 132.009 34.2084C132.032 34.3111 132.542 34.5611 132.622 34.6295C133.258 35.1945 131.899 34.8306 131.779 34.845C130.878 34.9556 130.946 35.4499 130.7 35.8768C130.641 35.9779 131.381 36.2121 131.349 36.3217C131.179 36.8782 130.851 37.3654 130.293 37.7118C130.168 37.7868 129.641 37.3888 129.552 37.4096C129.306 37.47 129.645 37.7354 129.839 37.9458C129.95 38.0709 130.011 38.1777 129.883 38.2161C129.811 38.2388 129.327 37.961 129.269 37.9421C128.343 37.6457 129.5 38.372 129.51 38.4182C129.661 39.0338 128.253 38.6812 128.235 39.1879C128.235 39.2468 128.922 39.4405 128.885 39.5858C128.634 40.5594 128.061 41.4969 127.503 41.6567C127.416 41.6625 126.888 41.6289 126.823 41.621C126.313 41.6193 126.399 41.676 126.62 41.6735C126.841 41.6769 127.193 41.632 127.217 41.6186C127.397 41.5134 127.128 41.2812 126.95 41.1397C126.763 40.9822 126.771 40.8565 126.979 40.055C126.545 40.0524 126.845 40.215 127.116 40.2096C127.409 40.2239 127.805 40.1756 128.188 40.1429C128.992 40.073 129.867 40.0633 130.871 40.6251C130.895 40.6378 130.974 41.3067 131.023 41.3292C131.618 41.606 131.347 40.5926 131.461 39.2724C131.489 38.9411 132.043 40.4076 132.089 40.514C132.255 40.9071 132.345 41.9077 132.39 41.9815C132.758 42.5575 132.106 39.3142 132.431 39.252C132.442 39.2555 132.512 39.862 132.551 39.9163C132.671 40.087 132.712 39.8331 132.836 40.023C132.978 40.242 133.142 40.7405 133.286 41.0649C133.427 41.3925 133.548 41.5436 133.608 41.0544C133.623 40.928 133.214 39.0956 133.527 39.1263C133.658 39.1392 134.164 39.01 134.335 39.1012C134.504 39.1925 134.517 39.8057 134.532 39.8294C135.078 40.5391 134.996 40.8921 135.411 42.0179C135.828 43.1389 135.245 40.3867 135.265 40.0631C135.285 39.7404 135.699 40.3328 135.815 40.5441C135.93 40.7556 135.913 41.1502 136.001 41.2654C136.583 42.0174 135.921 39.8591 135.974 39.3943C136.093 38.2948 136.745 40.2933 137.083 40.4363C137.172 40.4752 137.017 40.0213 137.08 39.964C137.328 39.7432 137.622 40.3492 137.834 39.7001C137.872 39.5938 137.888 38.3131 138.232 39.1839C138.281 39.3095 138.312 39.8329 138.455 39.9238C138.667 40.0606 139.02 40.1076 139.179 39.8997C139.296 39.7459 138.97 38.9369 139.199 39.1632C139.301 39.2643 139.25 39.7849 139.434 39.9338C139.617 40.0828 139.997 39.9863 140.142 39.9404C140.285 39.8943 140.08 39.2725 140.083 39.2272C140.105 38.9674 140.322 38.6057 140.347 38.6017C141.577 38.2801 142.932 39.1296 144.072 38.5348C144.162 38.4891 143.966 37.8294 143.978 37.8155C144.248 37.4696 144.344 39.3074 144.691 39.8605C144.388 38.5031 144.572 38.7232 144.771 38.5284C144.866 38.4335 144.702 37.9172 144.701 37.8612C144.705 37.0268 145.024 38.0403 145.096 38.2464C145.358 39.0046 145.294 38.0601 145.471 38.5665C145.647 39.0691 145.629 39.8695 145.848 39.816C145.813 39.3156 145.396 38.0722 145.522 37.8323C145.996 36.9256 147.369 37.693 147.895 37.696C148.422 37.6989 148.565 37.5766 148.895 37.6942C149.49 37.9069 149.106 36.9995 149.349 36.5004C149.593 36.0012 149.899 38.3614 150.046 38.8524C150.193 39.3433 150.141 38.8182 150.254 39.0815C150.367 39.3449 150.31 39.7102 150.467 39.7862C150.624 39.862 150.818 38.8974 150.761 38.3644C150.641 37.2353 150.24 36.1055 150.682 36.442C150.708 36.4621 150.763 37.0877 150.855 37.1337C151.58 37.4784 152.241 37.3758 152.954 37.6656C153.053 37.7064 153.113 38.4029 153.171 38.4343C153.783 38.7641 153.365 37.6538 153.395 36.3206C153.673 38.0306 154.042 39.0366 154.442 38.9661C154.683 38.9244 154.492 38.1916 154.541 37.638C154.555 37.4713 154.828 37.9456 154.788 37.5909C154.659 36.4311 154.241 35.1882 154.755 35.6128C154.778 35.6333 154.847 36.2685 154.916 36.2936C155.369 36.4592 155.172 35.2586 155.58 35.0256C155.899 34.8428 156.647 35.4472 157.063 35.4856C157.443 37.3944 157.721 36.8829 157.601 35.5378C157.861 35.5408 158.121 35.4103 158.401 35.5423C158.498 35.5871 158.555 36.1505 158.578 36.2079C158.932 37.1106 158.779 35.8092 158.823 35.7479C159.309 35.1405 159.991 36.0107 160.357 34.9481C160.37 34.9099 160.13 33.5789 160.479 34.5148C160.503 34.5794 160.441 35.2202 160.715 35.2123C160.99 35.2044 161.631 35.8122 161.874 35.1221C161.933 34.956 161.934 33.8349 162.286 34.6377C162.333 34.7468 162.386 35.1319 162.464 35.3361C162.713 35.9866 162.5 34.6351 162.868 35.7444C163.237 36.8536 163.69 37.6475 163.893 36.7872C163.899 36.7621 163.766 35.6834 163.888 35.6755C164.081 35.6641 164.392 35.8298 164.582 35.7828C164.673 35.7599 164.477 35.1138 164.49 35.0985C165.041 34.5982 165.599 35.0939 166.328 35.2059C166.461 35.228 166.618 34.2575 167.01 34.9154C167.435 35.6366 167.858 38.9226 168.286 38.0271C168.454 37.6963 167.993 34.1676 168.59 35.1524C168.646 35.241 168.71 35.3664 168.785 35.5344C169.51 34.8284 170.534 35.7426 171.21 34.8061C171.241 34.7643 171.107 33.5963 171.198 33.5924C171.334 33.5886 171.521 34.1067 171.627 34.1197C172.062 34.1908 172.323 33.6522 172.71 33.6376C172.863 33.6295 172.94 34.1916 173.121 34.182C173.302 34.1718 173.239 33.4226 173.561 33.7159C173.799 33.9408 174.326 35.3788 174.609 35.4926C174.267 34.0319 174.427 34.0253 174.624 33.5688C174.66 33.4807 174.476 32.9884 174.487 32.9206C174.527 32.6336 174.722 33.0308 174.754 32.7206C174.762 32.6462 174.637 32.1492 174.636 32.0604C174.615 31.2879 175.17 32.3343 175.27 32.5154C175.64 33.2064 175.56 32.538 175.774 32.791C175.989 33.0436 175.882 33.4612 176.091 33.5932C176.535 33.8629 176.955 33.6563 177.312 33.5686C177.452 33.5308 177.151 32.9088 177.166 32.8883C177.388 32.6367 177.918 33.222 177.601 31.887C179.021 35.1152 177.648 31.5092 178.261 32.0166C178.309 32.058 179.019 33.5657 178.979 33.8484C178.935 34.1325 178.544 33.7282 178.492 34.1538C178.489 34.2512 178.746 35.8169 178.737 35.9195C178.671 36.7236 177.861 34.3678 177.804 34.243C177.194 32.8912 177.416 34.582 177.366 34.7182C177.155 35.3376 176.754 35.0861 176.556 35.5336C176.429 35.8222 176.818 37.4058 176.653 37.3976C176.077 37.3777 175.365 35.2112 175.358 37.2438C175.354 37.678 175.879 39.3843 175.181 38.1117C175.136 38.0317 174.562 36.8515 174.598 37.6761C174.602 37.7802 174.722 38.2853 174.706 38.3339C174.596 38.6501 174.38 38.2758 174.241 38.5117C174.099 38.7483 173.929 39.0906 173.68 38.9669C173.527 38.8939 173.143 37.9892 173.027 37.7726C172.708 37.1453 172.768 38.2786 172.477 37.497C172.185 36.7114 172.124 35.4327 171.718 34.9737C172.003 36.2926 172.282 37.6491 172.561 38.977C171.934 39.0685 171.207 38.7816 170.611 38.9722C170.535 38.9977 170.769 39.6891 170.691 39.7347C170.352 39.9263 169.96 39.4818 169.627 39.7639C169.614 39.7755 169.601 39.7887 169.588 39.8034C169.371 40.0656 169.227 40.8113 168.98 41.0513C168.48 39.5794 168.162 40.1828 167.809 40.1133C167.687 40.0892 167.611 39.6838 167.506 39.5687C167.11 39.1438 167.529 40.4497 167.493 40.6768C167.336 41.6464 166.657 38.6336 166.27 38.7929C166.25 38.8003 166.324 40.4667 166.308 40.5748C166.211 41.2779 166.151 40.0221 165.98 39.9338C165.663 39.7731 165.404 39.4258 165.191 39.9628C165.129 40.1215 165.12 41.1715 164.779 40.432C164.734 40.3351 164.636 39.7998 164.611 39.7726C164.166 39.3225 164.507 40.9979 164.431 41.6049C164.355 42.2118 163.814 41.119 163.683 40.7988C163.346 39.97 163.729 40.4052 163.721 40.3186C163.615 39.2912 163.428 39.5108 163.248 39.4594C162.884 37.823 162.673 37.9693 163.06 39.4133C163.102 39.5709 163.199 39.3912 163.248 39.4594C163.437 41.0997 163.224 41.3587 162.629 39.9125C162.351 39.2344 162.303 38.3868 161.966 38.7701C161.814 38.9432 162.117 40.0591 162.02 40.4003C161.798 41.179 161.1 40.2235 160.758 40.4669C160.633 40.5554 160.894 41.1468 160.813 41.2286C160.599 41.4476 160.278 41.0295 160.08 41.318C160.062 41.3449 160.25 41.9815 160.174 42.0056C159.601 42.2015 158.999 41.892 158.381 42.006C158.08 42.062 157.623 42.5271 157.299 42.5181C156.736 42.5069 155.892 41.6966 155.479 42.0186C155.211 42.2253 155.407 42.8605 155.369 43.328C155.296 44.2341 154.549 42.7885 154.443 42.5628C154.439 42.5553 154.665 42.3506 154.461 42.0454C154.241 41.368 154.445 42.5592 154.443 42.5628C154.372 42.4173 153.832 42.3732 153.755 42.5177C153.713 42.5965 153.868 43.2047 153.844 43.2342C153.269 43.9222 152.614 44.2163 151.861 44.0685C151.846 44.0585 151.727 43.3675 151.694 43.3527C151.23 43.1277 151.141 44.0201 150.91 44.5858C150.677 45.1513 150.38 45.0368 149.948 43.8959C149.728 44.0945 149.264 43.6444 148.994 43.3691C148.724 43.0938 148.962 44.4377 148.949 44.4678C148.552 45.4273 148.069 44.7272 147.458 44.7246C147.169 44.7207 146.647 45.0259 146.375 45.232C146.159 45.3972 145.954 45.1119 145.771 45.3565C145.747 45.3892 145.895 45.9792 145.89 46.004C145.784 46.766 145.615 45.2854 145.512 45.0352C145.14 44.1254 144.927 43.6439 144.701 44.151C144.65 44.267 144.85 46.4075 144.741 46.5564C144.598 46.7463 144.515 45.9813 144.37 46.1991C144.358 46.2171 144.453 46.6805 144.337 46.6819C143.808 46.6939 143.18 46.5369 142.657 46.6877C142.584 46.7068 142.823 47.4243 142.72 47.464C142.233 47.6501 141.689 47.7282 141.13 47.4795C140.994 47.4157 140.968 46.8856 140.912 46.7376C140.572 45.8425 140.611 47.2318 140.579 47.2646C139.808 48.086 138.895 46.9992 138.098 47.7549C138.054 47.7986 137.951 49.3153 137.546 48.1095C137.52 48.0291 137.106 46.7955 137.122 47.6902C137.124 47.7462 137.355 48.3779 137.157 48.3469C136.959 48.3163 136.756 48.8066 136.364 48.1389C136.24 47.9287 135.807 46.7017 135.764 47.7539C135.761 47.8273 135.835 50.1738 135.398 48.6282C135.328 48.3735 135.033 46.7064 134.911 47.613C134.888 47.7886 135.057 48.141 134.958 48.3996C134.901 48.5532 134.811 48.5893 134.715 48.6209C134.554 48.6729 134.38 48.7135 134.299 49.2001C134.275 49.3405 134.293 50.5063 133.965 49.6803C133.914 49.551 133.86 48.9861 133.76 48.9404C133.291 48.7193 132.925 49.1712 132.429 48.8627C132.254 48.7542 132.176 47.84 131.97 47.6278C131.764 47.4158 131.408 47.2387 131.314 47.6779C131.208 48.1193 131.642 49.5232 131.395 49.6825C130.299 50.3635 129.056 49.7377 127.19 49.6528C126.891 49.634 127.149 50.1594 126.678 50.16C126.188 50.15 125.596 50.172 124.594 49.9951C123.675 49.8056 121.918 49.4267 120.117 47.5993C118.279 45.7215 117.853 43.2334 117.936 42.0855C118.001 40.813 118.324 40.212 118.679 39.7921C119.835 38.7005 120.137 40.3757 120.693 39.6073C120.958 39.2725 119.453 38.4401 119.437 38.317C119.195 37.3496 120.09 37.1663 120.098 36.5666C120.103 36.4372 119.427 36.2701 119.439 36.1612C119.473 35.7883 119.897 35.6018 119.976 35.3036C120.009 35.1711 119.525 34.9684 119.616 34.8726C119.83 34.6352 120.138 34.5071 120.701 34.4754C120.753 34.4728 121.262 34.914 121.376 34.7367C121.542 34.4759 122.021 34.3563 121.965 33.9388C121.955 33.8816 121.934 33.8187 121.898 33.7487C121.813 33.5836 120.749 33.0344 121.594 33.1995C121.771 33.2332 123.019 33.9498 122.043 33.1311C121.882 32.9936 120.602 31.8194 121.669 32.1115C121.949 32.1886 123.063 32.5974 122.958 32.3995C122.94 32.3703 122.338 32.1339 122.332 32.0098C122.322 31.5762 122.573 31.2487 122.577 30.8125C122.577 30.6939 121.916 30.5197 121.936 30.3525C121.994 29.8846 122.389 29.5067 122.773 29.2326C122.914 29.1363 123.35 29.4901 123.408 29.5089C124.351 29.8164 123.241 29.0977 123.202 29.0087C122.975 28.4617 123.653 28.509 123.671 28.134C123.677 28.0307 123.094 27.789 123.053 27.7458C122.666 27.3131 123.587 27.9799 123.756 27.9311C124.233 27.7903 124.366 27.442 124.464 27.0958C124.499 26.9687 123.791 26.7451 123.83 26.6349C124.044 25.9823 124.447 25.3963 125.115 25.0184C125.243 24.9468 125.696 25.287 125.82 25.3263C126.691 25.6045 125.749 24.7811 125.675 24.6743C125.341 24.1802 125.826 24.3285 125.863 24.0728C126.029 22.824 127.029 21.7095 127.744 20.8528C128.676 19.728 129.694 19.0108 130.245 17.7561C130.281 17.676 129.589 17.3848 129.611 17.311C129.933 16.3792 130.656 15.6954 130.951 14.7425C130.976 14.6647 130.304 14.4152 130.324 14.2786C130.36 13.9989 130.557 13.73 130.885 13.6111C131.044 13.5525 131.485 14.004 131.634 13.9388C131.982 13.787 132.187 13.5305 132.242 13.205C132.264 13.0656 131.537 12.8803 131.615 12.7268C132.135 11.6694 132.596 10.6133 133.998 10.0496C134.094 10.0109 135.406 10.6793 135.246 10.3904C134.899 10.1764 134.482 9.93843 134.106 9.71676C134.75 8.11953 136.03 6.91292 136.949 5.47156C136.987 5.41067 136.25 5.13056 136.321 5.01067C136.733 4.31607 136.936 3.52976 138.018 3.20119C138.125 3.16804 139.292 3.88763 139.232 3.57532C139.221 3.51963 139.243 3.11358 139.032 2.88374C139 2.8503 138.412 2.58888 138.454 2.47802C138.709 1.84045 139.191 1.295 139.868 0.902127C139.978 0.8393 140.511 1.2801 140.595 1.2383C141.184 0.939195 141.035 0.15897 141.835 0.00947989C142.372 -0.0894653 143.328 0.611405 144.427 1.02658C144.582 1.0851 144.713 0.908124 145.304 1.23468C146.788 2.0553 148.345 3.07348 149.934 3.93732C150.276 4.12354 150.059 3.66005 150.788 4.27991C150.836 4.32184 151.001 4.66197 151.252 4.86658C151.425 5.00826 152.052 5.29338 152.26 5.49878C152.467 5.70404 151.928 5.48817 152.154 5.76064C152.384 6.0351 153.088 6.37728 153.045 6.63678ZM147.783 42.1392C147.463 41.5346 147.903 43.8943 147.998 43.2898C148.002 43.2578 147.799 42.1687 147.783 42.1392ZM170.837 37.0089C170.351 36.0316 170.526 37.5866 170.871 38.3481C171.218 39.1083 170.985 37.305 170.837 37.0089ZM173.264 35.6722C172.786 34.9259 173.502 38.2535 173.661 37.5108C173.672 37.4685 173.293 35.7153 173.264 35.6722ZM144.278 1.94685C144.307 1.96042 144.412 1.83944 144.387 1.82042C143.768 1.36761 143.558 1.6098 144.278 1.94685ZM175.646 34.2275C175.436 33.8067 175.311 34.3871 175.564 34.9133C175.764 35.3377 175.908 34.7511 175.646 34.2275ZM137.313 41.5851C137.303 41.5505 137.187 41.5402 137.227 41.7384C137.36 42.3759 137.476 42.1662 137.313 41.5851ZM179.998 32.5771C179.302 32.8136 177.765 30.4291 178.453 30.4332C178.585 30.4278 178.646 31.345 178.898 31.4988C179.378 31.7678 178.691 30.1281 179.422 30.804C179.554 30.9287 180.04 32.57 179.999 32.5811C179.999 32.5798 179.999 32.5784 179.998 32.5771ZM147.11 39.3337C147.1 39.3033 146.94 39.3043 146.943 39.3359C147.008 40.0998 147.329 40.0982 147.11 39.3337ZM130.575 41.3435C130.552 41.2791 130.202 41.2748 130.195 41.3389C130.218 42.5992 130.955 42.6066 130.575 41.3435ZM157.079 35.5352C157.094 34.75 157.275 34.6209 157.6 35.537C157.424 35.5207 157.256 35.5473 157.079 35.5352Z" fill="#FF9800"/>
<path d="M159.166 8.58956C159.426 8.89347 159.277 9.37137 159.029 9.75645C158.952 9.87698 158.524 9.89163 158.452 9.97789C158.311 10.1465 158.539 10.2456 158.367 10.4176C158.308 10.475 157.633 10.5247 157.587 10.5824C157.336 10.8975 157.547 11.1232 157.449 11.4172C156.968 12.8652 156.93 14.2181 156.846 15.6186C156.819 16.0803 156.303 16.7197 156.642 17.1372C156.682 17.1859 157.26 17.0593 157.31 17.0618C158.073 17.1028 156.885 17.2403 156.746 17.3704C156.195 17.886 156.216 18.3567 156.506 18.7201C156.631 18.8745 157.763 18.5161 157.14 18.7928C157.098 18.8118 156.471 18.869 156.412 18.9264C156.281 19.0563 156.424 19.2391 156.388 19.329C156.316 19.5029 156.326 19.528 156.344 19.6786C156.362 19.8854 156.093 20.1784 156.269 20.3749C156.308 20.4165 156.934 20.2516 157.054 20.3088C157.174 20.366 157.152 20.5723 157.013 20.6632C156.874 20.7541 156.37 20.8066 156.257 20.8369C155.307 21.0904 156.682 21.1023 156.72 21.1263C157.371 21.5713 156.683 22.1546 156.766 22.6576C156.831 23.0392 157.149 23.4071 157.174 23.7762C157.2 24.2165 156.915 24.6394 157.043 25.0506C157.055 25.0942 157.794 24.9211 157.811 24.974C157.991 25.5363 158.003 26.1218 157.591 26.7773C157.549 26.8431 156.881 26.8752 156.8 26.9473C156.318 27.3866 155.113 28.1533 158.003 27.8999C157.93 28.1564 157.862 28.4645 157.32 28.7711C156.972 28.9686 156.236 28.9507 156.568 29.0703C156.642 29.0974 157.26 28.9465 157.324 28.9948C157.592 29.1983 157.431 29.4941 157.793 29.6798C157.868 29.7173 158.427 29.6133 158.53 29.6107C159.367 29.5935 158.046 30.0043 157.954 30.0621C157.273 30.4993 157.599 30.6853 157.629 30.9849C157.636 31.0545 158.376 30.8512 158.41 30.9137C158.573 31.24 158.566 31.6065 158.286 31.9972C158.222 32.0844 157.569 32.1194 157.506 32.1664C157.234 32.3723 158.452 32.211 158.214 32.4047C158.166 32.4453 157.614 32.5163 157.554 32.5319C156.622 32.7763 157.977 32.6381 158.01 32.6567C158.463 32.8874 157.093 33.3036 157.337 33.5577C157.368 33.5878 158.051 33.3981 158.094 33.4898C158.39 34.0998 158.309 34.8089 157.856 35.5335C157.786 35.646 157.253 35.6602 157.189 35.6768C156.2 35.9408 157.558 35.7881 157.614 35.8121C158.02 36.0068 156.929 36.4268 158.562 36.3394C158.179 37.5046 159.253 38.4287 157.988 39.7276C157.973 39.7439 157.306 39.827 157.28 39.859C156.96 40.245 157.981 40.0154 159.278 40.0266C159.603 40.0296 158.107 40.4413 157.998 40.474C157.595 40.5938 156.598 40.6985 156.522 40.7292C155.92 40.978 159.181 40.4253 159.215 40.6241C159.21 40.6312 158.605 40.7023 158.548 40.7287C158.369 40.811 158.616 40.8237 158.417 40.908C157.957 41.1017 156.377 41.4 157.329 41.4279C157.453 41.431 159.3 41.0968 159.241 41.2886C159.216 41.3653 159.298 41.6736 159.193 41.7809C159.087 41.888 158.48 41.9244 158.455 41.9349C157.704 42.2991 157.363 42.2624 156.213 42.5701C155.068 42.877 157.84 42.3946 158.157 42.3927C158.474 42.391 157.851 42.6698 157.632 42.749C157.412 42.8283 157.024 42.8366 156.902 42.8952C156.105 43.2818 158.298 42.7822 158.752 42.7936C159.827 42.8197 157.793 43.3049 157.62 43.5161C157.573 43.5732 158.036 43.4579 158.087 43.4938C158.282 43.637 157.656 43.8435 158.276 43.9419C158.377 43.9581 159.641 43.9143 158.749 44.1628C158.62 44.1984 158.1 44.2407 157.997 44.3319C157.842 44.4683 157.762 44.6818 157.952 44.7706C158.093 44.8362 158.922 44.6006 158.677 44.7515C158.568 44.8186 158.059 44.8095 157.894 44.9289C157.73 45.0479 157.789 45.2744 157.82 45.3592C157.852 45.4438 158.485 45.2921 158.53 45.2922C158.784 45.2948 159.121 45.4125 159.122 45.4274C159.321 46.1623 158.352 47.0267 158.828 47.6965C158.864 47.7493 159.534 47.6017 159.547 47.6086C159.862 47.7583 158.039 47.8953 157.459 48.1293C158.828 47.8874 158.593 48.0082 158.765 48.1216C158.85 48.176 159.375 48.0539 159.431 48.0511C160.254 48.0188 159.222 48.2562 159.012 48.3084C158.238 48.5006 159.177 48.4214 158.659 48.5507C158.146 48.6793 157.358 48.7022 157.389 48.8327C157.886 48.7902 159.154 48.4842 159.379 48.5509C160.227 48.8018 159.334 49.6713 159.279 49.9925C159.223 50.313 159.33 50.3965 159.181 50.6021C158.912 50.9737 159.845 50.7024 160.313 50.8302C160.782 50.9587 158.422 51.2414 157.923 51.3516C157.424 51.4612 157.947 51.4079 157.676 51.4877C157.405 51.5673 157.05 51.5474 156.959 51.6461C156.869 51.7449 157.801 51.8239 158.333 51.7676C159.459 51.6483 160.614 51.3577 160.237 51.6412C160.215 51.6576 159.592 51.7169 159.538 51.7747C159.124 52.2308 159.159 52.6296 158.801 53.0763C158.75 53.1379 158.057 53.2023 158.02 53.2394C157.633 53.6261 158.771 53.3261 160.083 53.2912C158.367 53.529 157.337 53.794 157.366 54.0353C157.383 54.1804 158.125 54.0347 158.666 54.0427C158.829 54.045 158.333 54.2299 158.687 54.1915C159.845 54.0667 161.114 53.7627 160.642 54.0926C160.62 54.1073 159.986 54.1745 159.954 54.2181C159.744 54.5005 160.949 54.3352 161.137 54.5733C161.284 54.76 160.611 55.2433 160.53 55.4961C158.608 55.8023 159.084 55.9516 160.423 55.8266C160.393 55.987 160.494 56.1386 160.335 56.3147C160.281 56.3753 159.719 56.4322 159.66 56.4483C158.733 56.6984 160.032 56.5557 160.088 56.5802C160.637 56.8553 159.707 57.3023 160.716 57.4862C160.753 57.4926 162.09 57.296 161.131 57.5442C161.064 57.5609 160.439 57.5475 160.418 57.7143C160.397 57.8811 159.73 58.2971 160.384 58.418C160.541 58.4474 161.647 58.4073 160.818 58.6529C160.705 58.686 160.32 58.7321 160.11 58.7875C159.442 58.9649 160.797 58.7833 159.664 59.0482C158.531 59.3131 157.7 59.6171 158.526 59.712C158.55 59.7154 159.628 59.595 159.623 59.6679C159.613 59.7843 159.416 59.9792 159.442 60.0949C159.455 60.1503 160.113 60.007 160.126 60.0147C160.559 60.3307 160.011 60.6942 159.819 61.1388C159.783 61.2205 160.722 61.2862 160.03 61.5451C159.272 61.829 155.986 62.1953 156.821 62.4306C157.155 62.5259 161.32 62.0407 159.22 62.6492C159.833 63.0706 158.813 63.7174 159.653 64.1035C159.69 64.1209 160.856 64.0064 160.849 64.0628C160.837 64.1468 160.304 64.2779 160.278 64.3407C160.154 64.606 160.651 64.7499 160.617 64.9919C160.605 65.0836 160.042 65.1433 160.028 65.2527C160.014 65.3619 160.76 65.3125 160.428 65.5112C160.175 65.6617 158.691 66.0114 158.539 66.1813C160.02 65.947 160.006 66.0492 160.425 66.1588C160.506 66.1798 161.015 66.0607 161.08 66.0663C161.356 66.0873 160.939 66.2156 161.238 66.2296C161.31 66.2331 161.815 66.1519 161.903 66.1502C162.664 66.1323 161.554 66.4858 161.361 66.5469C160.626 66.7801 161.293 66.7256 161.01 66.8591C160.728 66.9923 160.337 66.9247 160.173 67.0535C159.835 67.3202 159.96 67.5724 159.971 67.7859C159.978 67.8706 160.644 67.7042 160.66 67.7138C160.86 67.8592 160.17 68.1505 161.53 68.0288C158.073 68.7117 161.884 68.0785 161.228 68.4386C161.175 68.4672 159.535 68.7582 159.282 68.7225C159.028 68.6867 159.524 68.49 159.131 68.4471C159.039 68.4369 157.475 68.5455 157.379 68.5414C156.625 68.5089 159.078 68.0898 159.212 68.06C160.654 67.7339 158.966 67.8306 158.844 67.8038C158.285 67.6816 158.602 67.4495 158.199 67.3368C157.938 67.2627 156.327 67.5121 156.362 67.4151C156.477 67.0927 158.705 66.6259 156.713 66.6621C156.288 66.6695 154.539 67.0137 155.888 66.5755C155.973 66.5479 157.212 66.1839 156.397 66.2216C156.294 66.2263 155.782 66.3097 155.736 66.3014C155.441 66.2445 155.838 66.1103 155.625 66.0308C155.411 65.9513 155.098 65.8648 155.251 65.7098C155.343 65.6164 156.282 65.3636 156.51 65.2892C157.167 65.0767 156.044 65.1447 156.85 64.9486C157.659 64.7512 158.924 64.676 159.427 64.4208C158.094 64.6302 156.725 64.8371 155.384 65.0438C155.37 64.665 155.742 64.2301 155.623 63.8672C155.607 63.8224 154.898 63.9855 154.863 63.9405C154.715 63.7501 155.196 63.4851 154.958 63.3014C154.77 63.1596 153.982 63.0986 153.763 62.9542C155.27 62.6004 154.71 62.424 154.819 62.2125C154.856 62.1385 155.264 62.077 155.389 62.0085C155.852 61.7514 154.518 62.0526 154.299 62.0383C153.36 61.9758 156.406 61.4644 156.29 61.2303C156.285 61.2178 154.635 61.3213 154.53 61.3158C153.847 61.283 155.092 61.2011 155.198 61.0943C155.391 60.8993 155.761 60.7257 155.255 60.6156C155.105 60.5839 154.071 60.6169 154.838 60.3842C154.938 60.3536 155.476 60.2744 155.506 60.2581C155.997 59.9701 154.309 60.238 153.718 60.2145C153.128 60.1909 154.264 59.823 154.594 59.7322C155.447 59.4961 154.977 59.7452 155.063 59.7366C156.087 59.6331 155.891 59.5306 155.961 59.4169C157.613 59.1345 157.491 59.0109 156.026 59.3C155.866 59.3318 156.033 59.3846 155.961 59.4169C154.323 59.592 154.091 59.4721 155.58 59.0569C156.278 58.8624 157.12 58.8033 156.777 58.6112C156.623 58.524 155.49 58.7507 155.164 58.7044C154.42 58.5985 155.436 58.1397 155.232 57.9394C155.157 57.8667 154.547 58.0481 154.475 58.0018C154.281 57.8795 154.728 57.6717 154.464 57.5601C154.439 57.5502 153.791 57.6891 153.776 57.6437C153.642 57.3015 154.011 56.9251 153.962 56.5531C153.939 56.3734 153.527 56.112 153.569 55.915C153.639 55.5742 154.524 55.0255 154.249 54.7885C154.073 54.6335 153.426 54.7785 152.969 54.7739C152.082 54.7656 153.585 54.2536 153.818 54.1797C153.826 54.1773 154.005 54.3063 154.327 54.1699C155.017 54.0091 153.821 54.1809 153.818 54.1797C153.969 54.1315 154.067 53.8 153.933 53.7591C153.859 53.737 153.243 53.8557 153.217 53.8423C152.596 53.5207 152.373 53.1342 152.594 52.6703C152.606 52.6609 153.299 52.5599 153.317 52.5393C153.586 52.2481 152.714 52.2305 152.18 52.1127C151.645 51.995 151.788 51.8098 152.956 51.4996C152.783 51.3736 153.273 51.0731 153.571 50.8974C153.87 50.7218 152.52 50.9226 152.492 50.916C151.584 50.7136 152.324 50.392 152.386 50.0195C152.419 49.842 152.169 49.5406 151.993 49.3826C151.851 49.2582 152.152 49.1205 151.929 49.0208C151.899 49.0073 151.302 49.1225 151.278 49.1208C150.537 49.0892 152.015 48.9228 152.271 48.8499C153.206 48.5852 153.702 48.4347 153.223 48.3181C153.114 48.291 150.982 48.5057 150.846 48.4462C150.672 48.3681 151.435 48.2846 151.234 48.206C151.218 48.1992 150.751 48.2767 150.761 48.2065C150.8 47.8818 151.017 47.4996 150.918 47.1848C150.907 47.1415 150.175 47.3178 150.146 47.2572C150.01 46.9729 149.984 46.6412 150.284 46.2942C150.36 46.2084 150.886 46.1694 151.037 46.1289C151.953 45.8827 150.578 45.9665 150.548 45.9484C149.812 45.5211 150.971 44.9152 150.3 44.4668C150.261 44.4428 148.773 44.4503 150.001 44.1474C150.082 44.127 151.339 43.8205 150.454 43.8727C150.399 43.876 149.754 44.0446 149.803 43.9246C149.852 43.8047 149.386 43.6999 150.082 43.4332C150.301 43.349 151.553 43.0311 150.517 43.0533C150.445 43.0555 148.121 43.2073 149.687 42.8735C149.945 42.8188 151.619 42.5615 150.734 42.531C150.563 42.5256 150.2 42.6446 149.953 42.5972C149.573 42.5248 149.993 42.2795 149.223 42.2397C149.086 42.2331 147.933 42.2977 148.778 42.0628C148.911 42.026 149.473 41.9641 149.527 41.9036C149.788 41.6153 149.374 41.4246 149.721 41.1187C149.842 41.0105 150.752 40.9085 150.979 40.7795C151.206 40.6505 151.409 40.4317 150.981 40.4044C150.554 40.377 149.133 40.7126 148.995 40.5902C148.396 40.0583 149.141 39.3147 149.166 38.6829C149.169 38.5891 148.667 38.7476 148.636 38.6155C148.518 38.1286 147.898 37.3554 148.921 36.7505C149.741 36.266 150.478 36.5895 150.791 36.2698C150.941 36.1159 149.247 36.2497 149.19 36.2277C148.607 36.0161 149.314 35.6891 149.043 35.4576C148.987 35.4098 148.319 35.5738 148.278 35.5319C148.135 35.3899 148.41 35.1716 148.33 35.0267C148.292 34.9619 147.777 35.0584 147.806 34.9884C147.871 34.8218 148.067 34.6522 148.528 34.4254C148.57 34.4048 149.228 34.3917 149.234 34.2753C149.241 34.0873 149.683 33.7839 149.155 33.6544C148.997 33.6163 147.814 33.8053 148.609 33.5395C148.775 33.4839 150.2 33.2898 148.948 33.3328C148.74 33.3396 147.043 33.3461 148.089 33.0451C148.364 32.9658 149.512 32.6914 149.318 32.6462C149.287 32.6408 148.658 32.7842 148.586 32.7323C148.344 32.5476 148.374 32.3079 148.139 32.1159C148.075 32.0648 147.432 32.2604 147.358 32.1809C147.152 31.9624 147.27 31.6289 147.437 31.3556C147.499 31.2547 148.054 31.2277 148.112 31.2117C149.059 30.9521 147.748 31.1015 147.667 31.0794C147.178 30.9393 147.763 30.6776 147.569 30.5068C147.517 30.4594 146.903 30.5984 146.846 30.5965C146.288 30.5718 147.415 30.475 147.526 30.3841C147.842 30.1288 147.756 29.9151 147.644 29.7267C147.602 29.6576 146.896 29.8571 146.867 29.7938C146.68 29.4212 146.682 29.0019 147.017 28.5546C147.081 28.4701 147.642 28.4259 147.766 28.3904C148.634 28.1435 147.403 28.187 147.282 28.1706C146.731 28.0967 147.211 27.9557 147.097 27.8302C146.531 27.2183 146.718 26.3193 146.814 25.6397C146.935 24.7547 147.356 24.015 147.089 23.233C147.073 23.1832 146.344 23.354 146.321 23.3126C146.051 22.7725 146.248 22.1659 145.943 21.6304C145.92 21.5863 145.232 21.7668 145.171 21.6997C145.039 21.5629 145.046 21.3617 145.244 21.1699C145.339 21.0766 145.955 21.0814 146.038 20.9894C146.234 20.7751 146.253 20.5763 146.111 20.4116C146.049 20.3417 145.354 20.5748 145.33 20.475C145.147 19.7976 144.915 19.1411 145.727 18.2952C145.783 18.2372 147.228 17.9603 146.933 17.9039C146.529 17.9615 146.055 18.0387 145.624 18.1051C145.229 17.1399 145.572 16.0659 145.487 15.0477C145.483 15.0048 144.726 15.2026 144.715 15.1202C144.649 14.6433 144.361 14.2165 145.047 13.6068C145.114 13.5465 146.471 13.3521 146.244 13.2432C146.202 13.2242 145.987 13.0394 145.684 13.0316C145.639 13.0313 145.014 13.1726 144.984 13.1066C144.823 12.7214 144.899 12.2781 145.221 11.8156C145.274 11.7407 145.957 11.7006 146.001 11.6464C146.305 11.2624 145.736 10.9903 146.297 10.5798C146.674 10.3046 147.849 10.1936 148.976 9.89743C149.135 9.85561 149.139 9.72227 149.804 9.60779C151.475 9.31956 153.319 9.08531 155.099 8.77069C155.483 8.70303 155.041 8.59704 155.986 8.54908C156.05 8.54617 156.378 8.6217 156.699 8.60157C156.92 8.58781 157.591 8.43941 157.877 8.43815C158.162 8.43692 157.603 8.57705 157.942 8.59676C158.286 8.61578 159.051 8.45908 159.166 8.58956ZM154.905 50.1084C155.534 49.8888 153.162 50.2554 153.749 50.2879C153.78 50.289 154.875 50.1194 154.905 50.1084ZM157.529 63.9428C158.55 63.6235 156.997 63.7695 156.207 64.0061C155.418 64.2425 157.22 64.0399 157.529 63.9428ZM158.544 65.3762C159.34 65.0673 155.976 65.5836 156.685 65.6616C156.725 65.6663 158.498 65.3942 158.544 65.3762ZM149.385 10.3588C149.416 10.3521 149.432 10.2543 149.4 10.2571C148.64 10.3295 148.609 10.525 149.385 10.3588ZM159.625 66.7866C160.071 66.6583 159.521 66.5855 158.966 66.7451C158.521 66.8735 159.071 66.9464 159.625 66.7866ZM156.464 43.7082C156.499 43.7006 156.52 43.6289 156.321 43.6626C155.679 43.7712 155.875 43.8344 156.464 43.7082ZM160.089 69.4062C160.153 68.9977 162.89 68.3132 162.645 68.7864C162.601 68.872 161.733 68.7648 161.499 68.9027C161.072 69.1546 162.834 68.9908 161.929 69.3238C161.764 69.3844 160.079 69.4305 160.085 69.4061C160.086 69.4061 160.088 69.4062 160.089 69.4062ZM157.741 49.5815C157.772 49.5741 157.786 49.4771 157.755 49.4799C156.995 49.5518 156.964 49.7472 157.741 49.5815ZM157.3 39.5859C157.366 39.57 157.394 39.346 157.331 39.349C156.083 39.4365 156.023 39.89 157.3 39.5859ZM160.479 55.5081C161.252 55.4861 161.361 55.592 160.424 55.826C160.458 55.7179 160.449 55.6161 160.479 55.5081Z" fill="#FF9800"/>
</svg>
