<svg width="360" height="360" viewBox="0 0 360 360" fill="none" xmlns="http://www.w3.org/2000/svg">
<rect width="360" height="360" fill="#E5E5E5" fill-opacity="0.933333"/>
<g clip-path="url(#clip0_63190_34750)">
<path d="M130.842 176.348H117.386C117.219 176.348 117.059 176.414 116.942 176.531C116.824 176.648 116.757 176.806 116.757 176.971V183.484C116.757 183.828 117.039 184.107 117.386 184.107H122.636V192.199C122.636 192.199 121.457 192.597 118.198 192.597C114.353 192.597 108.983 191.206 108.983 179.515C108.983 167.822 114.575 166.283 119.826 166.283C124.37 166.283 126.328 167.075 127.574 167.457C127.966 167.576 128.328 167.19 128.328 166.846L129.829 160.553C129.829 160.392 129.774 160.199 129.588 160.067C129.083 159.71 125.996 158 118.198 158C109.215 158 100 161.783 100 179.971C100 198.16 110.55 200.87 119.441 200.87C126.802 200.87 131.267 197.756 131.267 197.756C131.451 197.655 131.471 197.401 131.471 197.284V176.971C131.471 176.628 131.189 176.348 130.842 176.348ZM200.155 160.277C200.155 159.93 199.878 159.65 199.531 159.65H191.954C191.871 159.651 191.789 159.667 191.713 159.699C191.637 159.73 191.567 159.777 191.509 159.835C191.451 159.893 191.405 159.962 191.373 160.038C191.342 160.113 191.326 160.195 191.326 160.277L191.328 174.772H179.518V160.277C179.518 159.93 179.239 159.651 178.893 159.651H171.316C171.149 159.652 170.989 159.718 170.872 159.835C170.754 159.953 170.689 160.112 170.69 160.277V199.525C170.69 199.871 170.971 200.153 171.316 200.153H178.892C179.239 200.153 179.517 199.871 179.517 199.525V182.737H191.327L191.307 199.525C191.307 199.871 191.588 200.153 191.934 200.153H199.529C199.876 200.153 200.154 199.871 200.154 199.525L200.155 160.277ZM145.116 165.524C145.116 162.823 142.928 160.641 140.23 160.641C137.534 160.641 135.345 162.823 135.345 165.524C135.345 168.222 137.534 170.41 140.23 170.41C142.928 170.41 145.116 168.222 145.116 165.524ZM144.514 191.266V173.149C144.515 172.984 144.449 172.825 144.332 172.708C144.214 172.591 144.054 172.525 143.888 172.524H136.335C135.988 172.524 135.678 172.878 135.678 173.222V199.178C135.678 199.941 136.158 200.168 136.78 200.168H143.585C144.332 200.168 144.514 199.805 144.514 199.166V191.266ZM229.113 172.524H221.594C221.249 172.524 220.969 172.805 220.969 173.151V192.396C220.969 192.396 219.059 193.78 216.348 193.78C213.636 193.78 212.917 192.562 212.917 189.934V173.152C212.917 172.805 212.637 172.524 212.292 172.524H204.661C204.317 172.524 204.034 172.805 204.034 173.152V191.205C204.034 199.01 208.429 200.92 214.474 200.92C219.434 200.92 223.432 198.207 223.432 198.207C223.432 198.207 223.623 199.637 223.709 199.806C223.795 199.975 224.019 200.146 224.262 200.146L229.117 200.125C229.461 200.125 229.743 199.843 229.743 199.498L229.741 173.151C229.741 172.986 229.676 172.827 229.558 172.709C229.44 172.592 229.28 172.525 229.113 172.524ZM246.437 193.795C243.829 193.716 242.06 192.544 242.06 192.544V180.115C242.06 180.115 243.805 179.056 245.946 178.867C248.653 178.627 251.262 179.436 251.262 185.83C251.262 192.573 250.085 193.903 246.437 193.795ZM249.402 171.681C245.132 171.681 242.227 173.567 242.227 173.567V160.277C242.228 160.195 242.212 160.114 242.181 160.038C242.15 159.962 242.104 159.893 242.046 159.835C241.988 159.777 241.919 159.731 241.843 159.699C241.766 159.667 241.685 159.651 241.602 159.65H234.004C233.921 159.651 233.839 159.667 233.763 159.699C233.687 159.731 233.618 159.777 233.56 159.835C233.501 159.893 233.455 159.962 233.424 160.038C233.393 160.114 233.377 160.195 233.378 160.277V199.525C233.378 199.871 233.658 200.153 234.005 200.153H239.277C239.514 200.153 239.694 200.032 239.827 199.82C239.958 199.609 240.147 198.01 240.147 198.01C240.147 198.01 243.253 200.925 249.135 200.925C256.04 200.925 260 197.457 260 185.359C260 173.262 253.676 171.681 249.402 171.681ZM166.322 172.456H160.638L160.629 165.023C160.629 164.742 160.483 164.601 160.154 164.601H152.409C152.108 164.601 151.947 164.732 151.947 165.019V172.7C151.947 172.7 148.065 173.628 147.803 173.702C147.672 173.74 147.557 173.819 147.475 173.926C147.393 174.034 147.349 174.166 147.349 174.301V179.128C147.349 179.475 147.629 179.755 147.976 179.755H151.947V191.366C151.947 199.991 158.058 200.839 162.182 200.839C164.066 200.839 166.32 200.239 166.692 200.103C166.918 200.022 167.048 199.791 167.048 199.54L167.054 194.231C167.054 193.885 166.759 193.604 166.426 193.604C166.095 193.604 165.248 193.738 164.376 193.738C161.584 193.738 160.638 192.453 160.638 190.79L160.638 179.755H166.322C166.404 179.755 166.486 179.738 166.563 179.706C166.639 179.675 166.708 179.628 166.767 179.57C166.825 179.512 166.871 179.443 166.902 179.367C166.933 179.291 166.949 179.21 166.948 179.128V173.082C166.948 172.735 166.668 172.456 166.322 172.456Z" fill="#11110F"/>
</g>
<path d="M217 257C215.687 257 214.386 257.259 213.173 257.761C211.96 258.264 210.858 259 209.929 259.929C208.054 261.804 207 264.348 207 267C207 271.42 209.87 275.17 213.84 276.5C214.34 276.58 214.5 276.27 214.5 276V274.31C211.73 274.91 211.14 272.97 211.14 272.97C210.68 271.81 210.03 271.5 210.03 271.5C209.12 270.88 210.1 270.9 210.1 270.9C211.1 270.97 211.63 271.93 211.63 271.93C212.5 273.45 213.97 273 214.54 272.76C214.63 272.11 214.89 271.67 215.17 271.42C212.95 271.17 210.62 270.31 210.62 266.5C210.62 265.39 211 264.5 211.65 263.79C211.55 263.54 211.2 262.5 211.75 261.15C211.75 261.15 212.59 260.88 214.5 262.17C215.29 261.95 216.15 261.84 217 261.84C217.85 261.84 218.71 261.95 219.5 262.17C221.41 260.88 222.25 261.15 222.25 261.15C222.8 262.5 222.45 263.54 222.35 263.79C223 264.5 223.38 265.39 223.38 266.5C223.38 270.32 221.04 271.16 218.81 271.41C219.17 271.72 219.5 272.33 219.5 273.26V276C219.5 276.27 219.66 276.59 220.17 276.5C224.14 275.16 227 271.42 227 267C227 265.687 226.741 264.386 226.239 263.173C225.736 261.96 225 260.858 224.071 259.929C223.142 259 222.04 258.264 220.827 257.761C219.614 257.259 218.313 257 217 257Z" fill="#FFCD29"/>
<defs>
<clipPath id="clip0_63190_34750">
<rect width="160" height="43" fill="white" transform="translate(100 158)"/>
</clipPath>
</defs>
</svg>
