<svg width="18" height="18" viewBox="0 0 18 18" fill="none" xmlns="http://www.w3.org/2000/svg">
<path d="M3.87533 13.2503C4.58366 12.7087 5.37533 12.2816 6.25033 11.9691C7.12533 11.6566 8.04199 11.5003 9.00033 11.5003C9.95866 11.5003 10.8753 11.6566 11.7503 11.9691C12.6253 12.2816 13.417 12.7087 14.1253 13.2503C14.6114 12.6809 14.9899 12.035 15.2607 11.3128C15.5316 10.5906 15.667 9.81977 15.667 9.00033C15.667 7.1531 15.0177 5.58019 13.7191 4.28158C12.4205 2.98296 10.8475 2.33366 9.00033 2.33366C7.1531 2.33366 5.58019 2.98296 4.28158 4.28158C2.98296 5.58019 2.33366 7.1531 2.33366 9.00033C2.33366 9.81977 2.46908 10.5906 2.73991 11.3128C3.01074 12.035 3.38921 12.6809 3.87533 13.2503ZM9.00033 9.83366C8.18088 9.83366 7.48991 9.55241 6.92741 8.98991C6.36491 8.42741 6.08366 7.73644 6.08366 6.91699C6.08366 6.09755 6.36491 5.40658 6.92741 4.84408C7.48991 4.28158 8.18088 4.00033 9.00033 4.00033C9.81977 4.00033 10.5107 4.28158 11.0732 4.84408C11.6357 5.40658 11.917 6.09755 11.917 6.91699C11.917 7.73644 11.6357 8.42741 11.0732 8.98991C10.5107 9.55241 9.81977 9.83366 9.00033 9.83366ZM9.00033 17.3337C7.84755 17.3337 6.76421 17.1149 5.75033 16.6774C4.73644 16.2399 3.85449 15.6462 3.10449 14.8962C2.35449 14.1462 1.76074 13.2642 1.32324 12.2503C0.885742 11.2364 0.666992 10.1531 0.666992 9.00033C0.666992 7.84755 0.885742 6.76421 1.32324 5.75033C1.76074 4.73644 2.35449 3.85449 3.10449 3.10449C3.85449 2.35449 4.73644 1.76074 5.75033 1.32324C6.76421 0.885742 7.84755 0.666992 9.00033 0.666992C10.1531 0.666992 11.2364 0.885742 12.2503 1.32324C13.2642 1.76074 14.1462 2.35449 14.8962 3.10449C15.6462 3.85449 16.2399 4.73644 16.6774 5.75033C17.1149 6.76421 17.3337 7.84755 17.3337 9.00033C17.3337 10.1531 17.1149 11.2364 16.6774 12.2503C16.2399 13.2642 15.6462 14.1462 14.8962 14.8962C14.1462 15.6462 13.2642 16.2399 12.2503 16.6774C11.2364 17.1149 10.1531 17.3337 9.00033 17.3337Z" fill="white"/>
</svg>
