<svg width="74" height="24" viewBox="0 0 74 24" fill="none" xmlns="http://www.w3.org/2000/svg">
<g clip-path="url(#clip0_62222_223690)">
<path d="M0.0117188 20.0003V6.66699H1.6834V20.0003H0.0117188Z" fill="#1D1B20"/>
<path d="M4.46973 20.0003V10.5559H6.14141V20.0003H4.46973ZM4.46973 8.33366V6.66699H6.14141V8.33366H4.46973Z" fill="#1D1B20"/>
<path d="M14.5264 23.8103C13.6383 23.8103 12.8286 23.7872 12.0973 23.7409C11.3717 23.7003 10.7477 23.5962 10.2253 23.4283C9.70286 23.2663 9.29943 23.0059 9.01502 22.6471C8.73062 22.2941 8.58841 21.808 8.58841 21.1888H10.2601C10.2601 21.5938 10.4168 21.8832 10.7303 22.0569C11.0495 22.2305 11.5255 22.3346 12.1581 22.3693C12.7909 22.4041 13.5803 22.4214 14.5264 22.4214C15.2287 22.4214 15.8295 22.3983 16.3287 22.352C16.8278 22.3114 17.2342 22.187 17.5476 21.9787C17.8668 21.7704 18.099 21.4202 18.2442 20.9283C18.3951 20.4422 18.4705 19.7565 18.4705 18.8711V18.6367C18.0642 19.1575 17.5041 19.5018 16.7901 19.6697C16.082 19.8375 15.2026 19.9214 14.152 19.9214C13.0666 19.9214 12.1408 19.8607 11.3745 19.7391C10.6083 19.6118 9.98442 19.3745 9.50261 19.0273C9.02661 18.6801 8.67838 18.1766 8.45781 17.5169C8.23724 16.8571 8.12695 15.9949 8.12695 14.9301C8.12695 13.7958 8.23724 12.8873 8.45781 12.2044C8.67838 11.5215 9.02661 11.0094 9.50261 10.668C9.98442 10.3207 10.6083 10.0921 11.3745 9.98219C12.1408 9.86646 13.0666 9.80859 14.152 9.80859C15.2026 9.80859 16.082 9.88664 16.7901 10.0429C17.5041 10.1934 18.0642 10.532 18.4705 11.0585V9.99953H20.1422V18.9405C20.119 20.0401 19.9797 20.9138 19.7242 21.562C19.4689 22.216 19.1032 22.7021 18.6273 23.0203C18.157 23.3444 17.5766 23.5557 16.8859 23.654C16.201 23.7582 15.4145 23.8103 14.5264 23.8103ZM18.4705 14.9301C18.4705 14.1025 18.4183 13.4428 18.3138 12.9509C18.2151 12.4532 18.0178 12.08 17.7218 11.8311C17.4315 11.5765 16.9991 11.4087 16.4245 11.3276C15.8556 11.2409 15.0981 11.1975 14.152 11.1975C13.1537 11.1975 12.3613 11.2409 11.775 11.3276C11.1946 11.4087 10.7622 11.5765 10.4778 11.8311C10.1933 12.08 10.0076 12.4532 9.92058 12.9509C9.83927 13.4428 9.79861 14.1025 9.79861 14.9301C9.79861 15.6824 9.83927 16.2958 9.92058 16.7704C10.0076 17.2449 10.1905 17.6095 10.4691 17.8642C10.7535 18.1187 11.1888 18.2953 11.775 18.3937C12.3613 18.4862 13.1537 18.5325 14.152 18.5325C15.0981 18.5325 15.8556 18.4862 16.4245 18.3937C16.9991 18.2953 17.4315 18.1187 17.7218 17.8642C18.0178 17.6095 18.2151 17.2449 18.3138 16.7704C18.4183 16.2958 18.4705 15.6824 18.4705 14.9301Z" fill="#1D1B20"/>
<path d="M22.4404 20.0003V6.66699H24.1121V11.3284C24.3618 10.9928 24.6693 10.7121 25.0351 10.4865C25.4065 10.2608 25.8999 10.0929 26.5152 9.98299C27.1362 9.86726 27.9489 9.80939 28.9531 9.80939C30.2649 9.80939 31.298 9.93668 32.0527 10.1913C32.813 10.4459 33.3528 10.9002 33.6721 11.5541C33.9914 12.2081 34.151 13.134 34.151 14.3319V20.0003H32.4705V14.3319C32.4705 13.649 32.4125 13.0993 32.2964 12.6826C32.1803 12.2659 31.9801 11.9505 31.6957 11.7364C31.4171 11.5223 31.031 11.3805 30.5377 11.3111C30.0443 11.2359 29.4174 11.1983 28.6571 11.1983C27.4961 11.1983 26.5849 11.2937 25.9232 11.4847C25.2614 11.6757 24.7942 11.9766 24.5213 12.3874C24.2485 12.7926 24.1121 13.3221 24.1121 13.9761V20.0003H22.4404Z" fill="#1D1B20"/>
<path d="M41.012 20.0003C39.9904 20.0003 39.172 19.8991 38.5567 19.6965C37.9414 19.4881 37.4945 19.1236 37.2159 18.6027C36.943 18.0761 36.8066 17.3383 36.8066 16.3892V6.66699H38.4783V10.0003H44.6514V11.3719H38.4783V16.3892C38.4783 17.0374 38.5364 17.5206 38.6525 17.8389C38.7743 18.1571 39.0152 18.3655 39.3752 18.4639C39.7408 18.5623 40.2864 18.6114 41.012 18.6114C41.6563 18.6114 42.1613 18.5912 42.5269 18.5506C42.8984 18.5102 43.1713 18.4031 43.3454 18.2295C43.5195 18.0501 43.6298 17.7578 43.6762 17.3528C43.7227 16.9477 43.7459 16.3777 43.7459 15.6427H45.2261C45.2261 16.6033 45.1651 17.373 45.0432 17.9517C44.9271 18.5305 44.7152 18.9673 44.4076 19.2625C44.1058 19.5577 43.6791 19.7544 43.1277 19.8528C42.5821 19.9512 41.8769 20.0003 41.012 20.0003Z" fill="#1D1B20"/>
<path d="M52.827 20.1909C51.5151 20.1909 50.4819 20.0492 49.7273 19.7656C48.9727 19.4763 48.4358 18.9959 48.1166 18.3246C47.7974 17.6476 47.6377 16.7245 47.6377 15.5556V10H49.3181V15.5556C49.3181 16.2153 49.3704 16.7593 49.4749 17.1875C49.5851 17.61 49.7767 17.9398 50.0495 18.1771C50.3223 18.4085 50.7054 18.5706 51.1988 18.6632C51.698 18.7558 52.3394 18.802 53.123 18.802C54.2839 18.802 55.1951 18.7066 55.8569 18.5156C56.5186 18.3246 56.9859 18.0266 57.2587 17.6215C57.5373 17.2107 57.6766 16.6782 57.6766 16.0243V10H59.3482V20H57.6766V18.6719C57.4328 19.0076 57.1251 19.2882 56.7536 19.5139C56.3822 19.7396 55.8858 19.9074 55.2648 20.0173C54.6437 20.1331 53.8311 20.1909 52.827 20.1909Z" fill="#1D1B20"/>
<path d="M72.26 14.9474C72.26 14.1199 72.2165 13.4573 72.1294 12.9596C72.0482 12.4619 71.8653 12.0887 71.5809 11.8398C71.2965 11.5852 70.8525 11.4145 70.2488 11.3276C69.6509 11.2409 68.8325 11.1975 67.7935 11.1975C66.8474 11.1975 66.0812 11.2409 65.4949 11.3276C64.9087 11.4145 64.4588 11.5852 64.1454 11.8398C63.8319 12.0887 63.6172 12.4619 63.5011 12.9596C63.385 13.4573 63.327 14.1199 63.327 14.9474C63.327 15.8039 63.385 16.4897 63.5011 17.0048C63.6172 17.5198 63.8319 17.9075 64.1454 18.168C64.4588 18.4226 64.9087 18.5933 65.4949 18.6801C66.0812 18.7611 66.8474 18.8016 67.7935 18.8016C68.8325 18.8016 69.6509 18.7611 70.2488 18.6801C70.8525 18.5933 71.2965 18.4226 71.5809 18.168C71.8653 17.9075 72.0482 17.5198 72.1294 17.0048C72.2165 16.4897 72.26 15.8039 72.26 14.9474ZM61.6553 23.3329V9.99953H63.327V11.1367C63.7507 10.5753 64.3311 10.2137 65.0683 10.0516C65.8113 9.88957 66.7196 9.80859 67.7935 9.80859C68.9196 9.80859 69.8715 9.86646 70.6493 9.98219C71.4329 10.0979 72.0656 10.3294 72.5474 10.6766C73.0292 11.0238 73.3803 11.5389 73.6008 12.2217C73.8214 12.9046 73.9317 13.8132 73.9317 14.9474C73.9317 16.1164 73.8214 17.051 73.6008 17.7513C73.3803 18.4515 73.0292 18.9781 72.5474 19.3311C72.0656 19.6784 71.4329 19.9069 70.6493 20.0169C69.8715 20.1326 68.9196 20.1905 67.7935 20.1905C66.7196 20.1905 65.8113 20.1095 65.0683 19.9474C64.3311 19.7854 63.7507 19.4209 63.327 18.8537V23.3329H61.6553Z" fill="#1D1B20"/>
<path d="M61.5322 7.6V6.43077H63.799V7.6H61.5322ZM64.564 4.53077L62.9631 2.87923L63.7565 2.04615L65.3575 3.7123L64.564 4.53077ZM64.9324 7.6C64.9324 6.68365 65.6753 5.9408 66.5916 5.9408H68.9402C69.8566 5.9408 70.5994 6.68365 70.5994 7.6H64.9324ZM67.1992 2.92308V0H68.3326V2.92308H67.1992ZM70.9678 4.53077L70.1744 3.7123L71.7754 2.06077L72.5829 2.87923L70.9678 4.53077ZM71.7328 7.6V6.43077H73.9996V7.6H71.7328Z" fill="#1D1B20"/>
</g>
<defs>
<clipPath id="clip0_62222_223690">
<rect width="74" height="24" fill="white"/>
</clipPath>
</defs>
</svg>
